<svg width="220" height="70" xmlns="http://www.w3.org/2000/svg" version="1.0" preserveAspectRatio="xMidYMid meet" color-interpolation-filters="sRGB" fill="#eee">

	<style type="text/css" >
	  <![CDATA[

	  	g.logo {
	  		fill: #fff;
	  	}

		g.text {
	    	fill: #000;
		}

	  ]]>
	</style>
 <g>
  <title>Layer 1</title>
  <g id="svg_28">
   <g class="iconsvg-imagesvg" id="svg_4">
    <g id="svg_5">
     <rect fill-opacity="0" stroke-width="20" x="10.57082" y="1.5" width="60" height="66.86205" class="image-rect" id="svg_6"/>
     <g id="svg_1">
      <svg x="10.57082" y="1.5" width="60" height="66.86205" filtersec="colorsb6877099532" class="image-svg-svg primary" id="svg_3">
       <g id="svg_7">
        <svg viewBox="0 0.04749941825866699 56.09007263183594 62.50499725341797" id="svg_25" xmlns="http://www.w3.org/2000/svg">
         <g id="svg_26">
          <path d="m56.08,20.4l0,9.06l-11.86,6.85l0,-28.08l7.28,4.2c3.58,2.06 4.6,3.83 4.59,8l-0.01,-0.03zm0,13.36l0,8.41c0,4.11 -1,5.91 -4.59,8l-7.85,4.53l-11.87,-6.9l24.31,-14l0,-0.04zm-16.17,23l-7.27,4.24c-3.58,2.07 -5.62,2.07 -9.19,0l-7.85,-4.53l0,-13.7l24.32,14l-0.01,-0.01zm-28,-2.48l-7.31,-4.16c-3.6,-2.07 -4.6,-3.83 -4.6,-7.96l0,-9.06l11.86,-6.85l0,28.07l0.05,-0.04zm-11.91,-25.48l0,-8.4c0,-4.11 1,-5.91 4.6,-8l7.84,-4.5l11.86,6.85l-24.3,14.05zm16.17,-23l7.28,-4.2c3.58,-2.07 5.62,-2.07 9.19,0l7.85,4.53l0,13.7l-24.32,-14l0,-0.03z" fill-rule="evenodd" id="svg_27"/>
         </g>
        </svg>
       </g>
      </svg>
     </g>
     <!---->
    </g>
   </g>
   <g data-gra="path-name" class="tp-name iconsvg-namesvg" id="svg_12">
    <g transform="translate(73.75 91.569) scale(1 1)" id="svg_13">
     <g id="svg_14">
      <path d="m43.50082,-72.01082l0,0q0,7.77 -4.59,12.01q-4.58,4.24 -13.03,4.24l0,0l-3.52,0l0,15.39l-12.54,0l0,-46.4l16.06,0q8.8,0 13.21,3.84q4.41,3.84 4.41,10.92zm-21.14,-4.64l0,10.67l2.29,0q2.82,0 4.49,-1.59q1.66,-1.59 1.66,-4.38l0,0q0,-4.7 -5.2,-4.7l0,0l-3.24,0zm49.01,0.13l0,36.15l-12.54,0l0,-36.15l-11.33,0l0,-10.25l35.16,0l0,10.25l-11.29,0zm16.75,-10.25l11.3,0l-1.3,16.76l-8.7,0l-1.3,-16.76zm47.2,35.36l0,0q0,5.77 -3.94,8.72q-3.93,2.95 -11.3,2.95l0,0q-4,0 -6.95,-0.42q-2.95,-0.43 -6.03,-1.57l0,0l0,-9.94q2.89,1.27 6.33,2.1q3.45,0.82 6.15,0.82l0,0q4.03,0 4.03,-1.84l0,0q0,-0.95 -1.13,-1.7q-1.13,-0.74 -6.55,-2.9l0,0q-4.96,-2.03 -6.92,-4.62q-1.97,-2.59 -1.97,-6.55l0,0q0,-5.02 3.87,-7.81q3.87,-2.79 10.95,-2.79l0,0q3.56,0 6.68,0.77q3.13,0.78 6.49,2.27l0,0l-3.36,8q-2.48,-1.11 -5.24,-1.89q-2.76,-0.78 -4.51,-0.78l0,0q-3.04,0 -3.04,1.5l0,0q0,0.92 1.06,1.57q1.06,0.65 6.14,2.65l0,0q3.78,1.55 5.64,3.04q1.85,1.5 2.73,3.51q0.87,2.02 0.87,4.91z" id="svg_15"/>
     </g>
     <!---->
     <!---->
     <!---->
     <!---->
     <!---->
     <!---->
     <!---->
    </g>
   </g>
   <g data-gra="path-slogan" class="tp-slogan iconsvg-slogansvg" id="svg_16">
    <rect x="88.57082" height="1" y="61.80315" width="39" id="svg_17"/>
    <rect height="1" y="61.80315" width="39" x="165.07082" id="svg_18"/>
    <g id="svg_19">
     <g transform="translate(73.75 91.569) scale(1 1)" id="svg_20">
      <path d="m60.06019,-32.56832l-2.07,0l0,2.67l2.07,0q1.82,0.05 1.78,-1.41l0,0q0,-1.26 -1.78,-1.26l0,0zm0.46,7.64l-3.7,0l0,-8.58l3.8,0q2.29,0.1 2.39,2.16l0,0q0,1.26 -1.13,1.78l0,0q1.6,0.56 1.6,2.11l0,0q-0.14,2.44 -2.96,2.53l0,0zm-0.28,-3.98l-2.25,0l0,3l2.49,0q1.78,-0.05 1.83,-1.55l0,0q0,-1.45 -2.07,-1.45l0,0zm4.55,-4.6l1.17,0l0,7.55l4.36,0l0,1.03l-5.53,0l0,-8.58zm13.45,4.31l0,0q-0.18,-3.37 -3,-3.56l0,0q-2.86,0.14 -3,3.56l0,0q0.14,3.33 3,3.47l0,0q2.82,-0.18 3,-3.47zm1.17,0l0,0q-0.28,4.27 -4.17,4.41l0,0q-3.93,-0.14 -4.22,-4.41l0,0q0.24,-4.45 4.22,-4.54l0,0q3.89,0.14 4.17,4.54zm7.79,0.66l-2.63,0l0,-0.98l3.75,0l0,4.59l-0.75,0l-0.28,-1.08q-0.98,1.17 -2.81,1.22l0,0q-1.74,0 -2.67,-0.89l0,0q-1.41,-1.31 -1.36,-3.61l0,0q0.32,-4.27 4.07,-4.45l0,0q3.19,0.18 3.66,2.81l0,0l-1.12,0q-0.47,-1.78 -2.58,-1.83l0,0q-2.67,0.19 -2.82,3.52l0,0q0,3.56 2.86,3.56l0,0q1.04,0 1.79,-0.56l0,0q0.93,-0.75 0.89,-2.3l0,0z" id="svg_21"/>
     </g>
    </g>
   </g>
  </g>
 </g>



</svg>
