<?xml version="1.0" encoding="utf-8" standalone="yes"?><svg xmlns:xlink="http://www.w3.org/1999/xlink" xmlns="http://www.w3.org/2000/svg" focusable="false" preserveAspectRatio="xMinYMin" width="537" height="265" viewBox="-84.65 -129.6 537.22  265.49" style="background-color:white"><polyline fill="none" stroke-width="2" stroke="#9fc5e8" stroke-dasharray="" stroke-linecap="" stroke-opacity="1" points="137.57071628570557, 85.74768257141113 161, 85.74768257141113 161, 85.74768257141113 161, 87.87917995452881 161, 87.87917995452881 168.57071628570557, 87.87917995452881" visibility="visible" style="opacity: 1;"/><rect width="56" height="32" rx="0" ry="0" x="83" y="70" stroke-width="1" stroke="#FF9933" stroke-dasharray="" stroke-linecap="" fill="#CC0033" stroke-opacity="0.4" fill-opacity="0.4" visibility="hidden" style="opacity: 0;"/><path d="M276.0,87.4  C229.9,87.2  183.7,86.5  137.6,85.7   183.7,86.9  229.9,87.9  276.0,88.4  Z" stroke-width="1" stroke="#CC0033" stroke-dasharray="" stroke-linecap="" stroke-opacity="0.4" fill-opacity="0.4" visibility="hidden" style="opacity: 0;"/><path d="M-91.6,-0.5  C-61.1,0.0  -30.5,0.0  0.0,0.0   -30.5,0.4  -61.1,0.7  -91.6,0.5  Z" stroke-width="1" stroke="#CC0033" stroke-dasharray="" stroke-linecap="" stroke-opacity="0.4" fill-opacity="0.4" visibility="hidden" style="opacity: 0;"/><polyline fill="none" stroke-width="2" stroke="#9fc5e8" stroke-dasharray="" stroke-linecap="" stroke-opacity="1" points="137.57071628570557, 48.0382137298584 161, 48.0382137298584 161, 48.0382137298584 161, 50.169711112976074 161, 50.169711112976074 168.57071628570557, 50.169711112976074" visibility="visible" style="opacity: 1;"/><polyline fill="none" stroke-width="2" stroke="#9fc5e8" stroke-dasharray="" stroke-linecap="" stroke-opacity="1" points="0, 0 65, 0 65, 0 65, 85.74768257141113 65, 85.74768257141113 86.6474377822876, 85.74768257141113" visibility="visible" style="opacity: 1;"/><polyline fill="none" stroke-width="2" stroke="#9fc5e8" stroke-dasharray="" stroke-linecap="" stroke-opacity="1" points="0, 0 65, 0 65, 0 65, 48.0382137298584 65, 48.0382137298584 86.6474377822876, 48.0382137298584" visibility="visible" style="opacity: 1;"/><polyline fill="none" stroke-width="2" stroke="#9fc5e8" stroke-dasharray="" stroke-linecap="" stroke-opacity="1" points="124.93493595123292, -37.709468841552734 148, -37.709468841552734 148, -37.709468841552734 148, 12.46024227142334 148, 12.46024227142334 155.93493595123292, 12.46024227142334" visibility="visible" style="opacity: 1;"/><polyline fill="none" stroke-width="2" stroke="#9fc5e8" stroke-dasharray="" stroke-linecap="" stroke-opacity="1" points="124.93493595123292, -37.709468841552734 148, -37.709468841552734 148, -37.709468841552734 148, -87.87917995452881 148, -87.87917995452881 155.93493213653565, -87.87917995452881" visibility="visible" style="opacity: 1;"/><polyline fill="none" stroke-width="2" stroke="#9fc5e8" stroke-dasharray="" stroke-linecap="" stroke-opacity="1" points="124.93493595123292, -37.709468841552734 148, -37.709468841552734 148, -37.709468841552734 148, -54.432705879211426 148, -54.432705879211426 155.93493595123292, -54.432705879211426" visibility="visible" style="opacity: 1;"/><polyline fill="none" stroke-width="2" stroke="#9fc5e8" stroke-dasharray="" stroke-linecap="" stroke-opacity="1" points="124.93493595123292, -37.709468841552734 148, -37.709468841552734 148, -37.709468841552734 148, -20.986231803894043 148, -20.986231803894043 155.93493213653565, -20.986231803894043" visibility="visible" style="opacity: 1;"/><polyline fill="none" stroke-width="2" stroke="#9fc5e8" stroke-dasharray="" stroke-linecap="" stroke-opacity="1" points="0, 0 65, 0 65, 0 65, -37.709468841552734 65, -37.709468841552734 86.6474377822876, -37.709468841552734" visibility="visible" style="opacity: 1;"/><g preserveAspectRatio="none" focusable="true" width="100" height="100" transform="translate(-54.65,-14.92) scale(1.00,1.00)" test-id="1" visibility="visible" style="opacity: 1;"><rect width="115" height="36" rx="11" ry="11" x="-3" y="-3" stroke-width="1" stroke="#5199da" stroke-dasharray="" stroke-linecap="" fill="#5199da" stroke-opacity="0" fill-opacity="0" style="cursor: default;"/><rect width="109" height="30" rx="9" ry="9" x="0" y="0" stroke-width="2" stroke="#0b5394" stroke-dasharray="" stroke-linecap="" fill="#0b5394" visibility="visible" style="cursor: default; opacity: 1;"/><text font-family="Arial" font-size="13.4" font-style="normal" font-weight="bold" fill="#ffffff" visibility="visible" style="cursor: default; opacity: 1;" y="7.46" x="7.76"><tspan dy="1em" x="7.76">进程实体的组成</tspan></text><g preserveAspectRatio="none" focusable="true" width="0" height="19"/></g><g preserveAspectRatio="none" focusable="true" width="100" height="100" transform="translate(153.93,-99.60) scale(1.00,1.00)" test-id="176" visibility="visible" style="opacity: 1;"><rect width="84" height="29" rx="9" ry="9" x="-3" y="-3" stroke-width="1" stroke="#5199da" stroke-dasharray="" stroke-linecap="" fill="#5199da" stroke-opacity="0" fill-opacity="0" style="cursor: move;"/><rect width="78" height="23" rx="11" ry="11" x="0" y="0" stroke-width="2" stroke="#0b5394" stroke-dasharray="" stroke-linecap="" fill="#0b5394" style="cursor: move; opacity: 1;" visibility="visible"/><text font-family="Arial" font-size="10.8" font-style="normal" font-weight="normal" fill="#ffffff" visibility="visible" style="cursor: move; opacity: 1;" y="5.86" x="6.10"><tspan dy="1em" x="6.10">进程描述信息</tspan></text><g preserveAspectRatio="none" focusable="true" width="0" height="15"/><ellipse width="6" height="6" rx="3" ry="3" cx="91" cy="14" stroke-width="2" stroke="#0b5394" stroke-dasharray="" stroke-linecap="" fill="#6fb7f8" visibility="hidden" style="cursor: default; opacity: 0;"/></g><g preserveAspectRatio="none" focusable="true" width="100" height="100" transform="translate(153.93,-66.16) scale(1.00,1.00)" test-id="177" visibility="visible" style="opacity: 1;"><rect width="116" height="29" rx="9" ry="9" x="-3" y="-3" stroke-width="1" stroke="#5199da" stroke-dasharray="" stroke-linecap="" fill="#5199da" stroke-opacity="0" fill-opacity="0" style="cursor: move;"/><rect width="110" height="23" rx="11" ry="11" x="0" y="0" stroke-width="2" stroke="#0b5394" stroke-dasharray="" stroke-linecap="" fill="#0b5394" style="cursor: move; opacity: 1;" visibility="visible"/><text font-family="Arial" font-size="10.8" font-style="normal" font-weight="normal" fill="#ffffff" visibility="visible" style="cursor: move; opacity: 1;" y="5.86" x="6.10"><tspan dy="1em" x="6.10">进程控制和管理信息</tspan></text><g preserveAspectRatio="none" focusable="true" width="0" height="15"/><ellipse width="6" height="6" rx="3" ry="3" cx="127" cy="14" stroke-width="2" stroke="#0b5394" stroke-dasharray="" stroke-linecap="" fill="#6fb7f8" visibility="hidden" style="cursor: default; opacity: 0;"/></g><g preserveAspectRatio="none" focusable="true" width="100" height="100" transform="translate(153.93,-32.71) scale(1.00,1.00)" test-id="178" visibility="visible" style="opacity: 1;"><rect width="83" height="29" rx="9" ry="9" x="-3" y="-3" stroke-width="1" stroke="#5199da" stroke-dasharray="" stroke-linecap="" fill="#5199da" stroke-opacity="0" fill-opacity="0" style="cursor: move;"/><rect width="77" height="23" rx="11" ry="11" x="0" y="0" stroke-width="2" stroke="#0b5394" stroke-dasharray="" stroke-linecap="" fill="#0b5394" style="cursor: move; opacity: 1;" visibility="visible"/><text font-family="Arial" font-size="10.8" font-style="normal" font-weight="normal" fill="#ffffff" visibility="visible" style="cursor: move; opacity: 1;" y="5.86" x="6.10"><tspan dy="1em" x="6.10">资源分配清单</tspan></text><g preserveAspectRatio="none" focusable="true" width="0" height="15"/><ellipse width="6" height="6" rx="3" ry="3" cx="90" cy="14" stroke-width="2" stroke="#0b5394" stroke-dasharray="" stroke-linecap="" fill="#6fb7f8" visibility="hidden" style="cursor: default; opacity: 0;"/></g><g preserveAspectRatio="none" focusable="true" width="100" height="100" transform="translate(153.93,0.74) scale(1.00,1.00)" test-id="179" visibility="visible" style="opacity: 1;"><rect width="95" height="29" rx="9" ry="9" x="-3" y="-3" stroke-width="1" stroke="#5199da" stroke-dasharray="" stroke-linecap="" fill="#5199da" stroke-opacity="0" fill-opacity="0" style="cursor: move;"/><rect width="89" height="23" rx="11" ry="11" x="0" y="0" stroke-width="2" stroke="#0b5394" stroke-dasharray="" stroke-linecap="" fill="#0b5394" style="cursor: move; opacity: 1;" visibility="visible"/><text font-family="Arial" font-size="10.8" font-style="normal" font-weight="normal" fill="#ffffff" visibility="visible" style="cursor: move; opacity: 1;" y="5.86" x="6.10"><tspan dy="1em" x="6.10">处理机相关信息</tspan></text><g preserveAspectRatio="none" focusable="true" width="0" height="15"/><ellipse width="6" height="6" rx="3" ry="3" cx="103" cy="14" stroke-width="2" stroke="#0b5394" stroke-dasharray="" stroke-linecap="" fill="#6fb7f8" visibility="hidden" style="cursor: default; opacity: 0;"/></g><g preserveAspectRatio="none" focusable="true" width="100" height="100" transform="translate(84.65,-51.56) scale(1.00,1.00)" test-id="198" visibility="visible" style="opacity: 1;"><rect width="45" height="34" rx="10" ry="10" x="-3" y="-3" stroke-width="1" stroke="#5199da" stroke-dasharray="" stroke-linecap="" fill="#5199da" stroke-opacity="0" fill-opacity="0" style="cursor: move;"/><rect width="39" height="28" rx="12" ry="12" x="0" y="0" stroke-width="2" stroke="#0b5394" stroke-dasharray="" stroke-linecap="" fill="#0b5394" style="cursor: move; opacity: 1;" visibility="visible"/><text font-family="Arial" font-size="12.1" font-style="normal" font-weight="normal" fill="#ffffff" visibility="visible" style="cursor: move; opacity: 1;" y="6.93" x="7.20"><tspan dy="1em" x="7.20">PCB</tspan></text><g preserveAspectRatio="none" focusable="true" width="0" height="18"/><ellipse width="6" height="6" rx="3" ry="3" cx="42" cy="14" stroke-width="2" stroke="#0b5394" stroke-dasharray="" stroke-linecap="" fill="#6fb7f8" visibility="visible" style="cursor: default; opacity: 1;"/></g><g preserveAspectRatio="none" focusable="true" width="100" height="100" transform="translate(84.65,34.18) scale(1.00,1.00)" test-id="199" visibility="visible" style="opacity: 1;"><rect width="58" height="34" rx="10" ry="10" x="-3" y="-3" stroke-width="1" stroke="#5199da" stroke-dasharray="" stroke-linecap="" fill="#5199da" stroke-opacity="0" fill-opacity="0" style="cursor: move;"/><rect width="52" height="28" rx="12" ry="12" x="0" y="0" stroke-width="2" stroke="#0b5394" stroke-dasharray="" stroke-linecap="" fill="#0b5394" style="cursor: move; opacity: 1;" visibility="visible"/><text font-family="Arial" font-size="12.1" font-style="normal" font-weight="normal" fill="#ffffff" visibility="visible" style="cursor: move; opacity: 1;" y="6.93" x="7.20"><tspan dy="1em" x="7.20">程序段</tspan></text><g preserveAspectRatio="none" focusable="true" width="0" height="18"/><ellipse width="6" height="6" rx="3" ry="3" cx="55" cy="14" stroke-width="2" stroke="#0b5394" stroke-dasharray="" stroke-linecap="" fill="#6fb7f8" visibility="visible" style="cursor: default; opacity: 1;"/></g><g preserveAspectRatio="none" focusable="true" width="100" height="100" transform="translate(84.65,71.89) scale(1.00,1.00)" test-id="200" visibility="visible" style="opacity: 1;"><rect width="58" height="34" rx="10" ry="10" x="-3" y="-3" stroke-width="1" stroke="#5199da" stroke-dasharray="" stroke-linecap="" fill="#5199da" stroke-opacity="0" fill-opacity="0" style="cursor: move;"/><rect width="52" height="28" rx="12" ry="12" x="0" y="0" stroke-width="2" stroke="#0b5394" stroke-dasharray="" stroke-linecap="" fill="#0b5394" style="cursor: move; opacity: 1;" visibility="visible"/><text font-family="Arial" font-size="12.1" font-style="normal" font-weight="normal" fill="#ffffff" visibility="visible" style="cursor: move; opacity: 1;" y="6.93" x="7.20"><tspan dy="1em" x="7.20">数据段</tspan></text><g preserveAspectRatio="none" focusable="true" width="0" height="18"/><ellipse width="6" height="6" rx="3" ry="3" cx="55" cy="14" stroke-width="2" stroke="#0b5394" stroke-dasharray="" stroke-linecap="" fill="#6fb7f8" visibility="visible" style="cursor: default; opacity: 1;"/></g><g preserveAspectRatio="none" focusable="true" width="100" height="100" transform="translate(166.57,38.45) scale(1.00,1.00)" test-id="201" visibility="visible" style="opacity: 1;"><rect width="137" height="29" rx="9" ry="9" x="-3" y="-3" stroke-width="1" stroke="#5199da" stroke-dasharray="" stroke-linecap="" fill="#5199da" stroke-opacity="0" fill-opacity="0" style="cursor: move;"/><rect width="131" height="23" rx="11" ry="11" x="0" y="0" stroke-width="2" stroke="#0b5394" stroke-dasharray="" stroke-linecap="" fill="#0b5394" style="cursor: move; opacity: 1;" visibility="visible"/><text font-family="Arial" font-size="10.8" font-style="normal" font-weight="normal" fill="#ffffff" visibility="visible" style="cursor: move; opacity: 1;" y="5.86" x="6.10"><tspan dy="1em" x="6.10">程序的代码（指令序列）</tspan></text><g preserveAspectRatio="none" focusable="true" width="0" height="15"/><ellipse width="6" height="6" rx="3" ry="3" cx="5" cy="5" stroke-width="2" stroke="#0b5394" stroke-dasharray="" stroke-linecap="" fill="#6fb7f8" visibility="hidden" style="cursor: default; opacity: 0;"/></g><g preserveAspectRatio="none" focusable="true" width="100" height="100" transform="translate(166.57,76.16) scale(1.00,1.00)" test-id="202" visibility="visible" style="opacity: 1;"><rect width="256" height="29" rx="9" ry="9" x="-3" y="-3" stroke-width="1" stroke="#5199da" stroke-dasharray="" stroke-linecap="" fill="#5199da" stroke-opacity="0" fill-opacity="0" style="cursor: move;"/><rect width="250" height="23" rx="11" ry="11" x="0" y="0" stroke-width="2" stroke="#0b5394" stroke-dasharray="" stroke-linecap="" fill="#0b5394" style="cursor: move; opacity: 1;" visibility="visible"/><text font-family="Arial" font-size="10.8" font-style="normal" font-weight="normal" fill="#ffffff" visibility="visible" style="cursor: move; opacity: 1;" y="5.86" x="6.10"><tspan dy="1em" x="6.10">运行中产生的各种数据（如程序中定义的变量等）</tspan></text><g preserveAspectRatio="none" focusable="true" width="0" height="15"/><ellipse width="6" height="6" rx="3" ry="3" cx="5" cy="5" stroke-width="2" stroke="#0b5394" stroke-dasharray="" stroke-linecap="" fill="#6fb7f8" visibility="hidden" style="cursor: default; opacity: 0;"/></g><rect width="50" height="6" rx="0" ry="0" x="274" y="85" stroke-width="1" stroke="#FF9933" stroke-dasharray="" stroke-linecap="" fill="#CC0033" stroke-opacity="0.4" fill-opacity="0.4" visibility="hidden" style="opacity: 0;"/></svg>