<?xml version="1.0" encoding="utf-8" standalone="yes"?><svg xmlns:xlink="http://www.w3.org/1999/xlink" xmlns="http://www.w3.org/2000/svg" focusable="false" preserveAspectRatio="xMinYMin" width="547" height="349" viewBox="-104.76 -171.6 547.11  349.48" style="background-color:white"><polyline fill="none" stroke-width="2" stroke="#9fc5e8" stroke-dasharray="" stroke-linecap="" stroke-opacity="1" points="181.35447120666504, -75.42960739135742 205, -75.42960739135742 205, -75.42960739135742 205, -58.70411396026611 205, -58.70411396026611 212.35447120666498, -58.70411396026611" visibility="visible" style="opacity: 1;"/><rect width="80" height="32" rx="0" ry="0" x="103" y="-91" stroke-width="1" stroke="#FF9933" stroke-dasharray="" stroke-linecap="" fill="#CC0033" stroke-opacity="0.4" fill-opacity="0.4" visibility="hidden" style="opacity: 0;"/><path d="M209.8,-25.8  C200.3,-42.0  190.9,-58.7  181.4,-75.4   190.9,-58.3  200.3,-41.3  209.8,-24.8  Z" stroke-width="1" stroke="#CC0033" stroke-dasharray="" stroke-linecap="" stroke-opacity="0.4" fill-opacity="0.4" visibility="hidden" style="opacity: 0;"/><path d="M119.6,-57.1  C79.7,-37.7  39.9,-18.9  0.0,0.0   39.9,-18.5  79.7,-37.0  119.6,-56.1  Z" stroke-width="1" stroke="#CC0033" stroke-dasharray="" stroke-linecap="" stroke-opacity="0.4" fill-opacity="0.4" visibility="hidden" style="opacity: 0;"/><polyline fill="none" stroke-width="2" stroke="#9fc5e8" stroke-dasharray="" stroke-linecap="" stroke-opacity="1" points="181.35447120666504, -75.42960739135742 205, -75.42960739135742 205, -75.42960739135742 205, -92.15510082244873 205, -92.15510082244873 212.35447120666504, -92.15510082244873" visibility="visible" style="opacity: 1;"/><polyline fill="none" stroke-width="2" stroke="#9fc5e8" stroke-dasharray="" stroke-linecap="" stroke-opacity="1" points="0, 0 80, 0 80, 0 80, 127.7379961013794 80, 127.7379961013794 106.7570166015625, 127.7379961013794" visibility="visible" style="opacity: 1;"/><polyline fill="none" stroke-width="2" stroke="#9fc5e8" stroke-dasharray="" stroke-linecap="" stroke-opacity="1" points="0, 0 80, 0 80, 0 80, 90.02319240570068 80, 90.02319240570068 106.7570166015625, 90.02319240570068" visibility="visible" style="opacity: 1;"/><polyline fill="none" stroke-width="2" stroke="#9fc5e8" stroke-dasharray="" stroke-linecap="" stroke-opacity="1" points="0, 0 80, 0 80, 0 80, 52.30838871002197 80, 52.30838871002197 106.7570166015625, 52.30838871002197" visibility="visible" style="opacity: 1;"/><polyline fill="none" stroke-width="2" stroke="#9fc5e8" stroke-dasharray="" stroke-linecap="" stroke-opacity="1" points="0, 0 80, 0 80, 0 80, 14.593585014343262 80, 14.593585014343262 106.7570166015625, 14.593585014343262" visibility="visible" style="opacity: 1;"/><polyline fill="none" stroke-width="2" stroke="#9fc5e8" stroke-dasharray="" stroke-linecap="" stroke-opacity="1" points="0, 0 80, 0 80, 0 80, -23.12121868133545 80, -23.12121868133545 106.7570166015625, -23.12121868133545" visibility="visible" style="opacity: 1;"/><polyline fill="none" stroke-width="2" stroke="#9fc5e8" stroke-dasharray="" stroke-linecap="" stroke-opacity="1" points="0, 0 80, 0 80, 0 80, -75.42960739135742 80, -75.42960739135742 106.7570166015625, -75.42960739135742" visibility="visible" style="opacity: 1;"/><polyline fill="none" stroke-width="2" stroke="#9fc5e8" stroke-dasharray="" stroke-linecap="" stroke-opacity="1" points="0, 0 80, 0 80, 0 80, -127.7379961013794 80, -127.7379961013794 106.7570166015625, -127.7379961013794" visibility="visible" style="opacity: 1;"/><g preserveAspectRatio="none" focusable="true" width="100" height="100" transform="translate(-74.76,-14.92) scale(1.00,1.00)" test-id="1" visibility="visible" style="opacity: 1;"><rect width="156" height="36" rx="11" ry="11" x="-3" y="-3" stroke-width="1" stroke="#5199da" stroke-dasharray="" stroke-linecap="" fill="#5199da" stroke-opacity="0" fill-opacity="0" style="cursor: default;"/><rect width="150" height="30" rx="9" ry="9" x="0" y="0" stroke-width="2" stroke="#0b5394" stroke-dasharray="" stroke-linecap="" fill="#0b5394" visibility="visible" style="cursor: default; opacity: 1;"/><text font-family="Arial" font-size="13.4" font-style="normal" font-weight="bold" fill="#ffffff" visibility="visible" style="cursor: default; opacity: 1;" y="7.46" x="7.76"><tspan dy="1em" x="7.76">操作系统的发展与分类</tspan></text><g preserveAspectRatio="none" focusable="true" width="0" height="19"/></g><g preserveAspectRatio="none" focusable="true" width="100" height="100" transform="translate(104.76,-89.29) scale(1.00,1.00)" test-id="117" visibility="visible" style="opacity: 1;"><rect width="82" height="34" rx="10" ry="10" x="-3" y="-3" stroke-width="1" stroke="#5199da" stroke-dasharray="" stroke-linecap="" fill="#5199da" stroke-opacity="0" fill-opacity="0" style="cursor: move;"/><rect width="76" height="28" rx="12" ry="12" x="0" y="0" stroke-width="2" stroke="#0b5394" stroke-dasharray="" stroke-linecap="" fill="#0b5394" style="cursor: move; opacity: 1;" visibility="visible"/><text font-family="Arial" font-size="12.1" font-style="normal" font-weight="normal" fill="#ffffff" visibility="visible" style="cursor: move; opacity: 1;" y="6.93" x="7.21"><tspan dy="1em" x="7.21">批处理阶段</tspan></text><g preserveAspectRatio="none" focusable="true" width="0" height="18"/><ellipse width="6" height="6" rx="3" ry="3" cx="79" cy="14" stroke-width="2" stroke="#0b5394" stroke-dasharray="" stroke-linecap="" fill="#6fb7f8" visibility="visible" style="cursor: default; opacity: 1;"/></g><g preserveAspectRatio="none" focusable="true" width="100" height="100" transform="translate(104.76,-36.98) scale(1.00,1.00)" test-id="118" visibility="visible" style="opacity: 1;"><rect width="94" height="34" rx="10" ry="10" x="-3" y="-3" stroke-width="1" stroke="#5199da" stroke-dasharray="" stroke-linecap="" fill="#5199da" stroke-opacity="0" fill-opacity="0" style="cursor: move;"/><rect width="88" height="28" rx="12" ry="12" x="0" y="0" stroke-width="2" stroke="#0b5394" stroke-dasharray="" stroke-linecap="" fill="#0b5394" style="cursor: move; opacity: 1;" visibility="visible"/><text font-family="Arial" font-size="12.1" font-style="normal" font-weight="normal" fill="#ffffff" visibility="visible" style="cursor: move; opacity: 1;" y="6.93" x="7.21"><tspan dy="1em" x="7.21">分时操作系统</tspan></text><g preserveAspectRatio="none" focusable="true" width="0" height="18"/><ellipse width="6" height="6" rx="3" ry="3" cx="5" cy="5" stroke-width="2" stroke="#0b5394" stroke-dasharray="" stroke-linecap="" fill="#6fb7f8" visibility="hidden" style="cursor: default; opacity: 0;"/></g><g preserveAspectRatio="none" focusable="true" width="100" height="100" transform="translate(104.76,0.74) scale(1.00,1.00)" test-id="119" visibility="visible" style="opacity: 1;"><rect width="93" height="34" rx="10" ry="10" x="-3" y="-3" stroke-width="1" stroke="#5199da" stroke-dasharray="" stroke-linecap="" fill="#5199da" stroke-opacity="0" fill-opacity="0" style="cursor: move;"/><rect width="87" height="28" rx="12" ry="12" x="0" y="0" stroke-width="2" stroke="#0b5394" stroke-dasharray="" stroke-linecap="" fill="#0b5394" style="cursor: move; opacity: 1;" visibility="visible"/><text font-family="Arial" font-size="12.1" font-style="normal" font-weight="normal" fill="#ffffff" visibility="visible" style="cursor: move; opacity: 1;" y="6.93" x="7.21"><tspan dy="1em" x="7.21">实时操作系统</tspan></text><g preserveAspectRatio="none" focusable="true" width="0" height="18"/><ellipse width="6" height="6" rx="3" ry="3" cx="5" cy="5" stroke-width="2" stroke="#0b5394" stroke-dasharray="" stroke-linecap="" fill="#6fb7f8" visibility="hidden" style="cursor: default; opacity: 0;"/></g><g preserveAspectRatio="none" focusable="true" width="100" height="100" transform="translate(104.76,-141.60) scale(1.00,1.00)" test-id="120" visibility="visible" style="opacity: 1;"><rect width="94" height="34" rx="10" ry="10" x="-3" y="-3" stroke-width="1" stroke="#5199da" stroke-dasharray="" stroke-linecap="" fill="#5199da" stroke-opacity="0" fill-opacity="0" style="cursor: move;"/><rect width="88" height="28" rx="12" ry="12" x="0" y="0" stroke-width="2" stroke="#0b5394" stroke-dasharray="" stroke-linecap="" fill="#0b5394" style="cursor: move; opacity: 1;" visibility="visible"/><text font-family="Arial" font-size="12.1" font-style="normal" font-weight="normal" fill="#ffffff" visibility="visible" style="cursor: move; opacity: 1;" y="6.93" x="7.21"><tspan dy="1em" x="7.21">手工操作阶段</tspan></text><g preserveAspectRatio="none" focusable="true" width="0" height="18"/><ellipse width="6" height="6" rx="3" ry="3" cx="5" cy="5" stroke-width="2" stroke="#0b5394" stroke-dasharray="" stroke-linecap="" fill="#6fb7f8" visibility="hidden" style="cursor: default; opacity: 0;"/></g><g preserveAspectRatio="none" focusable="true" width="100" height="100" transform="translate(104.76,38.45) scale(1.00,1.00)" test-id="128" visibility="visible" style="opacity: 1;"><rect width="93" height="34" rx="10" ry="10" x="-3" y="-3" stroke-width="1" stroke="#5199da" stroke-dasharray="" stroke-linecap="" fill="#5199da" stroke-opacity="0" fill-opacity="0" style="cursor: move;"/><rect width="87" height="28" rx="12" ry="12" x="0" y="0" stroke-width="2" stroke="#0b5394" stroke-dasharray="" stroke-linecap="" fill="#0b5394" style="cursor: move; opacity: 1;" visibility="visible"/><text font-family="Arial" font-size="12.1" font-style="normal" font-weight="normal" fill="#ffffff" visibility="visible" style="cursor: move; opacity: 1;" y="6.93" x="7.21"><tspan dy="1em" x="7.21">网络操作系统</tspan></text><g preserveAspectRatio="none" focusable="true" width="0" height="18"/><ellipse width="6" height="6" rx="3" ry="3" cx="5" cy="5" stroke-width="2" stroke="#0b5394" stroke-dasharray="" stroke-linecap="" fill="#6fb7f8" visibility="hidden" style="cursor: default; opacity: 0;"/></g><g preserveAspectRatio="none" focusable="true" width="100" height="100" transform="translate(104.76,76.17) scale(1.00,1.00)" test-id="129" visibility="visible" style="opacity: 1;"><rect width="106" height="34" rx="10" ry="10" x="-3" y="-3" stroke-width="1" stroke="#5199da" stroke-dasharray="" stroke-linecap="" fill="#5199da" stroke-opacity="0" fill-opacity="0" style="cursor: move;"/><rect width="100" height="28" rx="12" ry="12" x="0" y="0" stroke-width="2" stroke="#0b5394" stroke-dasharray="" stroke-linecap="" fill="#0b5394" style="cursor: move; opacity: 1;" visibility="visible"/><text font-family="Arial" font-size="12.1" font-style="normal" font-weight="normal" fill="#ffffff" visibility="visible" style="cursor: move; opacity: 1;" y="6.93" x="7.21"><tspan dy="1em" x="7.21">分布式操作系统</tspan></text><g preserveAspectRatio="none" focusable="true" width="0" height="18"/><ellipse width="6" height="6" rx="3" ry="3" cx="5" cy="5" stroke-width="2" stroke="#0b5394" stroke-dasharray="" stroke-linecap="" fill="#6fb7f8" visibility="hidden" style="cursor: default; opacity: 0;"/></g><g preserveAspectRatio="none" focusable="true" width="100" height="100" transform="translate(104.76,113.88) scale(1.00,1.00)" test-id="130" visibility="visible" style="opacity: 1;"><rect width="129" height="34" rx="10" ry="10" x="-3" y="-3" stroke-width="1" stroke="#5199da" stroke-dasharray="" stroke-linecap="" fill="#5199da" stroke-opacity="0" fill-opacity="0" style="cursor: move;"/><rect width="123" height="28" rx="12" ry="12" x="0" y="0" stroke-width="2" stroke="#0b5394" stroke-dasharray="" stroke-linecap="" fill="#0b5394" style="cursor: move; opacity: 1;" visibility="visible"/><text font-family="Arial" font-size="12.1" font-style="normal" font-weight="normal" fill="#ffffff" visibility="visible" style="cursor: move; opacity: 1;" y="6.93" x="7.21"><tspan dy="1em" x="7.21">个人计算机操作系统</tspan></text><g preserveAspectRatio="none" focusable="true" width="0" height="18"/><ellipse width="6" height="6" rx="3" ry="3" cx="5" cy="5" stroke-width="2" stroke="#0b5394" stroke-dasharray="" stroke-linecap="" fill="#6fb7f8" visibility="hidden" style="cursor: default; opacity: 0;"/></g><g preserveAspectRatio="none" focusable="true" width="100" height="100" transform="translate(210.35,-103.88) scale(1.00,1.00)" test-id="135" visibility="visible" style="opacity: 1;"><rect width="94" height="29" rx="9" ry="9" x="-3" y="-3" stroke-width="1" stroke="#5199da" stroke-dasharray="" stroke-linecap="" fill="#5199da" stroke-opacity="0" fill-opacity="0" style="cursor: move;"/><rect width="88" height="23" rx="11" ry="11" x="0" y="0" stroke-width="2" stroke="#0b5394" stroke-dasharray="" stroke-linecap="" fill="#0b5394" style="cursor: move; opacity: 1;" visibility="visible"/><text font-family="Arial" font-size="10.8" font-style="normal" font-weight="normal" fill="#ffffff" visibility="visible" style="cursor: move; opacity: 1;" y="5.86" x="6.10"><tspan dy="1em" x="6.10">单道批处理系统</tspan></text><g preserveAspectRatio="none" focusable="true" width="0" height="15"/><ellipse width="6" height="6" rx="3" ry="3" cx="5" cy="5" stroke-width="2" stroke="#0b5394" stroke-dasharray="" stroke-linecap="" fill="#6fb7f8" visibility="hidden" style="cursor: default; opacity: 0;"/></g><g preserveAspectRatio="none" focusable="true" width="100" height="100" transform="translate(210.35,-70.43) scale(1.00,1.00)" test-id="136" visibility="visible" style="opacity: 1;"><rect width="202" height="29" rx="9" ry="9" x="-3" y="-3" stroke-width="1" stroke="#5199da" stroke-dasharray="" stroke-linecap="" fill="#5199da" stroke-opacity="0" fill-opacity="0" style="cursor: move;"/><rect width="196" height="23" rx="11" ry="11" x="0" y="0" stroke-width="2" stroke="#0b5394" stroke-dasharray="" stroke-linecap="" fill="#0b5394" style="cursor: move; opacity: 1;" visibility="visible"/><text font-family="Arial" font-size="10.8" font-style="normal" font-weight="normal" fill="#ffffff" visibility="visible" style="cursor: move; opacity: 1;" y="5.86" x="6.10"><tspan dy="1em" x="6.10">多道批处理系统（操作系统开始出现）</tspan></text><g preserveAspectRatio="none" focusable="true" width="0" height="15"/><ellipse width="6" height="6" rx="3" ry="3" cx="5" cy="5" stroke-width="2" stroke="#0b5394" stroke-dasharray="" stroke-linecap="" fill="#6fb7f8" visibility="hidden" style="cursor: default; opacity: 0;"/></g><rect width="50" height="6" rx="0" ry="0" x="208" y="-28" stroke-width="1" stroke="#FF9933" stroke-dasharray="" stroke-linecap="" fill="#CC0033" stroke-opacity="0.4" fill-opacity="0.4" visibility="hidden" style="opacity: 0;"/></svg>