<?xml version="1.0" encoding="utf-8" standalone="yes"?><svg xmlns:xlink="http://www.w3.org/1999/xlink" xmlns="http://www.w3.org/2000/svg" focusable="false" preserveAspectRatio="xMinYMin" width="862" height="369" viewBox="-91.5 -181.57 862.48  369.15" style="background-color:white"><polyline fill="none" stroke-width="2" stroke="#9fc5e8" stroke-dasharray="" stroke-linecap="" stroke-opacity="1" points="307.0441954421997, 139.52010250091553 330, 139.52010250091553 330, 139.52010250091553 330, 139.07643699645996 330, 139.07643699645996 338.0441954421997, 139.07643699645996" visibility="visible" style="opacity: 1;"/><rect width="114" height="28" rx="0" ry="0" x="195" y="136" stroke-width="1" stroke="#FF9933" stroke-dasharray="" stroke-linecap="" fill="#CC0033" stroke-opacity="0.4" fill-opacity="0.4" visibility="hidden" style="opacity: 0;"/><path d="M400.5,138.6  C369.3,142.6  338.2,146.2  307.0,149.8   338.2,146.6  369.3,143.3  400.5,139.6  Z" stroke-width="1" stroke="#CC0033" stroke-dasharray="" stroke-linecap="" stroke-opacity="0.4" fill-opacity="0.4" visibility="hidden" style="opacity: 0;"/><path d="M-98.5,-0.5  C-65.7,0.0  -32.8,0.0  0.0,0.0   -32.8,0.4  -65.7,0.7  -98.5,0.5  Z" stroke-width="1" stroke="#CC0033" stroke-dasharray="" stroke-linecap="" stroke-opacity="0.4" fill-opacity="0.4" visibility="hidden" style="opacity: 0;"/><polyline fill="none" stroke-width="2" stroke="#9fc5e8" stroke-dasharray="" stroke-linecap="" stroke-opacity="1" points="307.0441954421997, -18.38280200958252 330, -18.38280200958252 330, -18.38280200958252 330, -0.8873310089111328 330, -0.8873310089111328 338.0441954421997, -0.8873310089111328" visibility="visible" style="opacity: 1;"/><polyline fill="none" stroke-width="2" stroke="#9fc5e8" stroke-dasharray="" stroke-linecap="" stroke-opacity="1" points="349.9787504959107, -104.97282600402832 373, -104.97282600402832 373, -104.97282600402832 373, -70.86921501159668 373, -70.86921501159668 380.9787504959107, -70.86921501159668" visibility="visible" style="opacity: 1;"/><polyline fill="none" stroke-width="2" stroke="#9fc5e8" stroke-dasharray="" stroke-linecap="" stroke-opacity="1" points="349.9787504959107, -104.97282600402832 373, -104.97282600402832 373, -104.97282600402832 373, -105.41649150848389 373, -105.41649150848389 380.9787504959107, -105.41649150848389" visibility="visible" style="opacity: 1;"/><polyline fill="none" stroke-width="2" stroke="#9fc5e8" stroke-dasharray="" stroke-linecap="" stroke-opacity="1" points="349.9787504959107, 69.09455299377441 373, 69.09455299377441 373, 69.09455299377441 373, 104.08549499511719 373, 104.08549499511719 380.9787504959107, 104.08549499511719" visibility="visible" style="opacity: 1;"/><polyline fill="none" stroke-width="2" stroke="#9fc5e8" stroke-dasharray="" stroke-linecap="" stroke-opacity="1" points="349.9787504959107, 69.09455299377441 373, 69.09455299377441 373, 69.09455299377441 373, 69.09455299377441 373, 69.09455299377441 380.9787504959107, 69.09455299377441" visibility="visible" style="opacity: 1;"/><polyline fill="none" stroke-width="2" stroke="#9fc5e8" stroke-dasharray="" stroke-linecap="" stroke-opacity="1" points="349.9787504959107, 69.09455299377441 373, 69.09455299377441 373, 69.09455299377441 373, 34.10361099243164 373, 34.10361099243164 380.9787504959107, 34.10361099243164" visibility="visible" style="opacity: 1;"/><polyline fill="none" stroke-width="2" stroke="#9fc5e8" stroke-dasharray="" stroke-linecap="" stroke-opacity="1" points="167.091555519104, 86.5900239944458 190, 86.5900239944458 190, 86.5900239944458 190, 69.09455299377441 190, 69.09455299377441 198.09155551910402, 69.09455299377441" visibility="visible" style="opacity: 1;"/><polyline fill="none" stroke-width="2" stroke="#9fc5e8" stroke-dasharray="" stroke-linecap="" stroke-opacity="1" points="307.0441954421997, -18.38280200958252 330, -18.38280200958252 330, -18.38280200958252 330, -35.878273010253906 330, -35.878273010253906 338.0441954421997, -35.878273010253906" visibility="visible" style="opacity: 1;"/><polyline fill="none" stroke-width="2" stroke="#9fc5e8" stroke-dasharray="" stroke-linecap="" stroke-opacity="1" points="349.9787504959107, -104.97282600402832 373, -104.97282600402832 373, -104.97282600402832 373, -139.52010250091553 373, -139.52010250091553 380.9787504959107, -139.52010250091553" visibility="visible" style="opacity: 1;"/><polyline fill="none" stroke-width="2" stroke="#9fc5e8" stroke-dasharray="" stroke-linecap="" stroke-opacity="1" points="167.091555519104, 86.5900239944458 190, 86.5900239944458 190, 86.5900239944458 190, 139.52010250091553 190, 139.52010250091553 198.091555519104, 139.52010250091553" visibility="visible" style="opacity: 1;"/><polyline fill="none" stroke-width="2" stroke="#9fc5e8" stroke-dasharray="" stroke-linecap="" stroke-opacity="1" points="167.091555519104, -69.98188400268555 190, -69.98188400268555 190, -69.98188400268555 190, -18.38280200958252 190, -18.38280200958252 198.091555519104, -18.38280200958252" visibility="visible" style="opacity: 1;"/><polyline fill="none" stroke-width="2" stroke="#9fc5e8" stroke-dasharray="" stroke-linecap="" stroke-opacity="1" points="167.091555519104, -69.98188400268555 190, -69.98188400268555 190, -69.98188400268555 190, -104.97282600402832 190, -104.97282600402832 198.09155551910402, -104.97282600402832" visibility="visible" style="opacity: 1;"/><polyline fill="none" stroke-width="2" stroke="#9fc5e8" stroke-dasharray="" stroke-linecap="" stroke-opacity="1" points="0, 0 70, 0 70, 0 70, -69.98188400268555 70, -69.98188400268555 93.50437007904051, -69.98188400268555" visibility="visible" style="opacity: 1;"/><polyline fill="none" stroke-width="2" stroke="#9fc5e8" stroke-dasharray="" stroke-linecap="" stroke-opacity="1" points="0, 0 70, 0 70, 0 70, 86.5900239944458 70, 86.5900239944458 93.50437007904051, 86.5900239944458" visibility="visible" style="opacity: 1;"/><g preserveAspectRatio="none" focusable="true" width="100" height="100" transform="translate(-61.50,-15.06) scale(1.00,1.00)" test-id="1" visibility="visible" style="opacity: 1;"><rect width="129" height="36" rx="11" ry="11" x="-3" y="-3" stroke-width="1" stroke="#5199da" stroke-dasharray="" stroke-linecap="" fill="#5199da" stroke-opacity="0" fill-opacity="0" style="cursor: default;"/><rect width="123" height="30" rx="9" ry="9" x="0" y="0" stroke-width="2" stroke="#0b5394" stroke-dasharray="" stroke-linecap="" fill="#0b5394" visibility="visible" style="cursor: default; opacity: 1;"/><text font-family="Arial" font-size="13.4" font-style="normal" font-weight="bold" fill="#ffffff" visibility="visible" style="cursor: default; opacity: 1;" y="7.53" x="7.83"><tspan dy="1em" x="7.83">进程的阻塞和唤醒</tspan></text><g preserveAspectRatio="none" focusable="true" width="0" height="20"/></g><g preserveAspectRatio="none" focusable="true" width="100" height="100" transform="translate(91.50,-83.54) scale(1.00,1.00)" test-id="289" visibility="visible" style="opacity: 1;"><rect width="81" height="33" rx="10" ry="10" x="-3" y="-3" stroke-width="1" stroke="#5199da" stroke-dasharray="" stroke-linecap="" fill="#5199da" stroke-opacity="0" fill-opacity="0" style="cursor: move;"/><rect width="75" height="27" rx="12" ry="12" x="0" y="0" stroke-width="2" stroke="#0b5394" stroke-dasharray="" stroke-linecap="" fill="#0b5394" style="cursor: move; opacity: 1;" visibility="visible"/><text font-family="Arial" font-size="12.1" font-style="normal" font-weight="normal" fill="#ffffff" visibility="visible" style="cursor: move; opacity: 1;" y="6.78" x="7.05"><tspan dy="1em" x="7.05">进程的阻塞</tspan></text><g preserveAspectRatio="none" focusable="true" width="0" height="18"/><ellipse width="6" height="6" rx="3" ry="3" cx="78" cy="14" stroke-width="2" stroke="#0b5394" stroke-dasharray="" stroke-linecap="" fill="#6fb7f8" visibility="visible" style="cursor: default; opacity: 1;"/></g><g preserveAspectRatio="none" focusable="true" width="100" height="100" transform="translate(91.50,73.03) scale(1.00,1.00)" test-id="290" visibility="visible" style="opacity: 1;"><rect width="81" height="33" rx="10" ry="10" x="-3" y="-3" stroke-width="1" stroke="#5199da" stroke-dasharray="" stroke-linecap="" fill="#5199da" stroke-opacity="0" fill-opacity="0" style="cursor: move;"/><rect width="75" height="27" rx="12" ry="12" x="0" y="0" stroke-width="2" stroke="#0b5394" stroke-dasharray="" stroke-linecap="" fill="#0b5394" style="cursor: move; opacity: 1;" visibility="visible"/><text font-family="Arial" font-size="12.1" font-style="normal" font-weight="normal" fill="#ffffff" visibility="visible" style="cursor: move; opacity: 1;" y="6.78" x="7.05"><tspan dy="1em" x="7.05">进程的唤醒</tspan></text><g preserveAspectRatio="none" focusable="true" width="0" height="18"/><ellipse width="6" height="6" rx="3" ry="3" cx="78" cy="14" stroke-width="2" stroke="#0b5394" stroke-dasharray="" stroke-linecap="" fill="#6fb7f8" visibility="visible" style="cursor: default; opacity: 1;"/></g><g preserveAspectRatio="none" focusable="true" width="100" height="100" transform="translate(196.09,-117.02) scale(1.00,1.00)" test-id="291" visibility="visible" style="opacity: 1;"><rect width="159" height="30" rx="9" ry="9" x="-3" y="-3" stroke-width="1" stroke="#5199da" stroke-dasharray="" stroke-linecap="" fill="#5199da" stroke-opacity="0" fill-opacity="0" style="cursor: move;"/><rect width="153" height="24" rx="11" ry="11" x="0" y="0" stroke-width="2" stroke="#0b5394" stroke-dasharray="" stroke-linecap="" fill="#0b5394" style="cursor: move; opacity: 1;" visibility="visible"/><text font-family="Arial" font-size="10.8" font-style="normal" font-weight="normal" fill="#ffffff" visibility="visible" style="cursor: move; opacity: 1;" y="6.03" x="6.27"><tspan dy="1em" x="6.27">阻塞原语（运行态→阻塞态）</tspan></text><g preserveAspectRatio="none" focusable="true" width="0" height="16"/><ellipse width="6" height="6" rx="3" ry="3" cx="156" cy="12" stroke-width="2" stroke="#0b5394" stroke-dasharray="" stroke-linecap="" fill="#6fb7f8" visibility="visible" style="cursor: default; opacity: 1;"/></g><g preserveAspectRatio="none" focusable="true" width="100" height="100" transform="translate(196.09,-30.43) scale(1.00,1.00)" test-id="292" visibility="visible" style="opacity: 1;"><rect width="116" height="30" rx="9" ry="9" x="-3" y="-3" stroke-width="1" stroke="#5199da" stroke-dasharray="" stroke-linecap="" fill="#5199da" stroke-opacity="0" fill-opacity="0" style="cursor: move;"/><rect width="110" height="24" rx="11" ry="11" x="0" y="0" stroke-width="2" stroke="#0b5394" stroke-dasharray="" stroke-linecap="" fill="#0b5394" style="cursor: move; opacity: 1;" visibility="visible"/><text font-family="Arial" font-size="10.8" font-style="normal" font-weight="normal" fill="#ffffff" visibility="visible" style="cursor: move; opacity: 1;" y="6.03" x="6.27"><tspan dy="1em" x="6.27">引起进程阻塞的事件</tspan></text><g preserveAspectRatio="none" focusable="true" width="0" height="16"/><ellipse width="6" height="6" rx="3" ry="3" cx="113" cy="12" stroke-width="2" stroke="#0b5394" stroke-dasharray="" stroke-linecap="" fill="#6fb7f8" visibility="visible" style="cursor: default; opacity: 1;"/></g><g preserveAspectRatio="none" focusable="true" width="100" height="100" transform="translate(196.09,57.04) scale(1.00,1.00)" test-id="293" visibility="visible" style="opacity: 1;"><rect width="159" height="30" rx="9" ry="9" x="-3" y="-3" stroke-width="1" stroke="#5199da" stroke-dasharray="" stroke-linecap="" fill="#5199da" stroke-opacity="0" fill-opacity="0" style="cursor: move;"/><rect width="153" height="24" rx="11" ry="11" x="0" y="0" stroke-width="2" stroke="#0b5394" stroke-dasharray="" stroke-linecap="" fill="#0b5394" style="cursor: move; opacity: 1;" visibility="visible"/><text font-family="Arial" font-size="10.8" font-style="normal" font-weight="normal" fill="#ffffff" visibility="visible" style="cursor: move; opacity: 1;" y="6.03" x="6.27"><tspan dy="1em" x="6.27">唤醒原语（阻塞态→就绪态）</tspan></text><g preserveAspectRatio="none" focusable="true" width="0" height="16"/><ellipse width="6" height="6" rx="3" ry="3" cx="156" cy="12" stroke-width="2" stroke="#0b5394" stroke-dasharray="" stroke-linecap="" fill="#6fb7f8" visibility="visible" style="cursor: default; opacity: 1;"/></g><g preserveAspectRatio="none" focusable="true" width="100" height="100" transform="translate(196.09,127.47) scale(1.00,1.00)" test-id="294" visibility="visible" style="opacity: 1;"><rect width="116" height="30" rx="9" ry="9" x="-3" y="-3" stroke-width="1" stroke="#5199da" stroke-dasharray="" stroke-linecap="" fill="#5199da" stroke-opacity="0" fill-opacity="0" style="cursor: move;"/><rect width="110" height="24" rx="11" ry="11" x="0" y="0" stroke-width="2" stroke="#0b5394" stroke-dasharray="" stroke-linecap="" fill="#0b5394" style="cursor: move; opacity: 1;" visibility="visible"/><text font-family="Arial" font-size="10.8" font-style="normal" font-weight="normal" fill="#ffffff" visibility="visible" style="cursor: move; opacity: 1;" y="6.03" x="6.27"><tspan dy="1em" x="6.27">引起进程唤醒的事件</tspan></text><g preserveAspectRatio="none" focusable="true" width="0" height="16"/><ellipse width="6" height="6" rx="3" ry="3" cx="113" cy="12" stroke-width="2" stroke="#0b5394" stroke-dasharray="" stroke-linecap="" fill="#6fb7f8" visibility="visible" style="cursor: default; opacity: 1;"/></g><g preserveAspectRatio="none" focusable="true" width="100" height="100" transform="translate(378.98,-151.57) scale(1.00,1.00)" test-id="295" visibility="visible" style="opacity: 1;"><rect width="159" height="30" rx="9" ry="9" x="-3" y="-3" stroke-width="1" stroke="#5199da" stroke-dasharray="" stroke-linecap="" fill="#5199da" stroke-opacity="0" fill-opacity="0" style="cursor: move;"/><rect width="153" height="24" rx="11" ry="11" x="0" y="0" stroke-width="2" stroke="#0b5394" stroke-dasharray="" stroke-linecap="" fill="#0b5394" style="cursor: move; opacity: 1;" visibility="visible"/><text font-family="Arial" font-size="10.8" font-style="normal" font-weight="normal" fill="#ffffff" visibility="visible" style="cursor: move; opacity: 1;" y="6.03" x="6.27"><tspan dy="1em" x="6.27">找到要阻塞的进程对应的PCB</tspan></text><g preserveAspectRatio="none" focusable="true" width="0" height="16"/><ellipse width="6" height="6" rx="3" ry="3" cx="5" cy="5" stroke-width="2" stroke="#0b5394" stroke-dasharray="" stroke-linecap="" fill="#6fb7f8" visibility="hidden" style="cursor: default; opacity: 0;"/></g><g preserveAspectRatio="none" focusable="true" width="100" height="100" transform="translate(378.98,-117.47) scale(1.00,1.00)" test-id="296" visibility="visible" style="opacity: 1;"><rect width="362" height="30" rx="9" ry="9" x="-3" y="-3" stroke-width="1" stroke="#5199da" stroke-dasharray="" stroke-linecap="" fill="#5199da" stroke-opacity="0" fill-opacity="0" style="cursor: move;"/><rect width="356" height="24" rx="11" ry="11" x="0" y="0" stroke-width="2" stroke="#0b5394" stroke-dasharray="" stroke-linecap="" fill="#0b5394" style="cursor: move; opacity: 1;" visibility="visible"/><text font-family="Arial" font-size="10.8" font-style="normal" font-weight="normal" fill="#ffffff" visibility="visible" style="cursor: move; opacity: 1;" y="6.03" x="6.27"><tspan dy="1em" x="6.27">保护进程运行现场，将PCB状态信息设置为“阻塞态"，暂时停止进程运行</tspan></text><g preserveAspectRatio="none" focusable="true" width="0" height="16"/><ellipse width="6" height="6" rx="3" ry="3" cx="5" cy="5" stroke-width="2" stroke="#0b5394" stroke-dasharray="" stroke-linecap="" fill="#6fb7f8" visibility="hidden" style="cursor: default; opacity: 0;"/></g><g preserveAspectRatio="none" focusable="true" width="100" height="100" transform="translate(378.98,-83.36) scale(1.00,1.00)" test-id="297" visibility="visible" style="opacity: 1;"><rect width="171" height="31" rx="9" ry="9" x="-3" y="-3" stroke-width="1" stroke="#5199da" stroke-dasharray="" stroke-linecap="" fill="#5199da" stroke-opacity="0" fill-opacity="0" style="cursor: move;"/><rect width="165" height="25" rx="11" ry="11" x="0" y="0" stroke-width="2" stroke="#0b5394" stroke-dasharray="" stroke-linecap="" fill="#0b5394" style="cursor: move; opacity: 1;" visibility="visible"/><text font-family="Arial" font-size="10.8" font-style="normal" font-weight="normal" fill="#ffffff" visibility="visible" style="cursor: move; opacity: 1;" y="6.25" x="6.50"><tspan dy="1em" x="6.50">将PCB插入相应事件的等待队列</tspan></text><g preserveAspectRatio="none" focusable="true" width="0" height="16"/><ellipse width="6" height="6" rx="3" ry="3" cx="5" cy="5" stroke-width="2" stroke="#0b5394" stroke-dasharray="" stroke-linecap="" fill="#6fb7f8" visibility="hidden" style="cursor: default; opacity: 0;"/></g><g preserveAspectRatio="none" focusable="true" width="100" height="100" transform="translate(336.04,-48.37) scale(1.00,1.00)" test-id="298" visibility="visible" style="opacity: 1;"><rect width="149" height="31" rx="9" ry="9" x="-3" y="-3" stroke-width="1" stroke="#5199da" stroke-dasharray="" stroke-linecap="" fill="#5199da" stroke-opacity="0" fill-opacity="0" style="cursor: move;"/><rect width="143" height="25" rx="11" ry="11" x="0" y="0" stroke-width="2" stroke="#0b5394" stroke-dasharray="" stroke-linecap="" fill="#0b5394" style="cursor: move; opacity: 1;" visibility="visible"/><text font-family="Arial" font-size="10.8" font-style="normal" font-weight="normal" fill="#ffffff" visibility="visible" style="cursor: move; opacity: 1;" y="6.25" x="6.50"><tspan dy="1em" x="6.50">需要等待系统分配某种资源</tspan></text><g preserveAspectRatio="none" focusable="true" width="0" height="16"/><ellipse width="6" height="6" rx="3" ry="3" cx="5" cy="5" stroke-width="2" stroke="#0b5394" stroke-dasharray="" stroke-linecap="" fill="#6fb7f8" visibility="hidden" style="cursor: default; opacity: 0;"/></g><g preserveAspectRatio="none" focusable="true" width="100" height="100" transform="translate(336.04,-13.38) scale(1.00,1.00)" test-id="299" visibility="visible" style="opacity: 1;"><rect width="203" height="31" rx="9" ry="9" x="-3" y="-3" stroke-width="1" stroke="#5199da" stroke-dasharray="" stroke-linecap="" fill="#5199da" stroke-opacity="0" fill-opacity="0" style="cursor: move;"/><rect width="197" height="25" rx="11" ry="11" x="0" y="0" stroke-width="2" stroke="#0b5394" stroke-dasharray="" stroke-linecap="" fill="#0b5394" style="cursor: move; opacity: 1;" visibility="visible"/><text font-family="Arial" font-size="10.8" font-style="normal" font-weight="normal" fill="#ffffff" visibility="visible" style="cursor: move; opacity: 1;" y="6.25" x="6.50"><tspan dy="1em" x="6.50">需要等待相互合作的其他进程完成工作</tspan></text><g preserveAspectRatio="none" focusable="true" width="0" height="16"/><ellipse width="6" height="6" rx="3" ry="3" cx="5" cy="5" stroke-width="2" stroke="#0b5394" stroke-dasharray="" stroke-linecap="" fill="#6fb7f8" visibility="hidden" style="cursor: default; opacity: 0;"/></g><g preserveAspectRatio="none" focusable="true" width="100" height="100" transform="translate(378.98,21.61) scale(1.00,1.00)" test-id="300" visibility="visible" style="opacity: 1;"><rect width="150" height="31" rx="9" ry="9" x="-3" y="-3" stroke-width="1" stroke="#5199da" stroke-dasharray="" stroke-linecap="" fill="#5199da" stroke-opacity="0" fill-opacity="0" style="cursor: move;"/><rect width="144" height="25" rx="11" ry="11" x="0" y="0" stroke-width="2" stroke="#0b5394" stroke-dasharray="" stroke-linecap="" fill="#0b5394" style="cursor: move; opacity: 1;" visibility="visible"/><text font-family="Arial" font-size="10.8" font-style="normal" font-weight="normal" fill="#ffffff" visibility="visible" style="cursor: move; opacity: 1;" y="6.25" x="6.50"><tspan dy="1em" x="6.50">在事件等待队列中找到PCB</tspan></text><g preserveAspectRatio="none" focusable="true" width="0" height="16"/><ellipse width="6" height="6" rx="3" ry="3" cx="5" cy="5" stroke-width="2" stroke="#0b5394" stroke-dasharray="" stroke-linecap="" fill="#6fb7f8" visibility="hidden" style="cursor: default; opacity: 0;"/></g><g preserveAspectRatio="none" focusable="true" width="100" height="100" transform="translate(378.98,56.60) scale(1.00,1.00)" test-id="301" visibility="visible" style="opacity: 1;"><rect width="226" height="31" rx="9" ry="9" x="-3" y="-3" stroke-width="1" stroke="#5199da" stroke-dasharray="" stroke-linecap="" fill="#5199da" stroke-opacity="0" fill-opacity="0" style="cursor: move;"/><rect width="220" height="25" rx="11" ry="11" x="0" y="0" stroke-width="2" stroke="#0b5394" stroke-dasharray="" stroke-linecap="" fill="#0b5394" style="cursor: move; opacity: 1;" visibility="visible"/><text font-family="Arial" font-size="10.8" font-style="normal" font-weight="normal" fill="#ffffff" visibility="visible" style="cursor: move; opacity: 1;" y="6.25" x="6.50"><tspan dy="1em" x="6.50">将PCB从等待队列移除，设置进程为就绪态</tspan></text><g preserveAspectRatio="none" focusable="true" width="0" height="16"/><ellipse width="6" height="6" rx="3" ry="3" cx="5" cy="5" stroke-width="2" stroke="#0b5394" stroke-dasharray="" stroke-linecap="" fill="#6fb7f8" visibility="hidden" style="cursor: default; opacity: 0;"/></g><g preserveAspectRatio="none" focusable="true" width="100" height="100" transform="translate(378.98,91.59) scale(1.00,1.00)" test-id="302" visibility="visible" style="opacity: 1;"><rect width="182" height="31" rx="9" ry="9" x="-3" y="-3" stroke-width="1" stroke="#5199da" stroke-dasharray="" stroke-linecap="" fill="#5199da" stroke-opacity="0" fill-opacity="0" style="cursor: move;"/><rect width="176" height="25" rx="11" ry="11" x="0" y="0" stroke-width="2" stroke="#0b5394" stroke-dasharray="" stroke-linecap="" fill="#0b5394" style="cursor: move; opacity: 1;" visibility="visible"/><text font-family="Arial" font-size="10.8" font-style="normal" font-weight="normal" fill="#ffffff" visibility="visible" style="cursor: move; opacity: 1;" y="6.25" x="6.50"><tspan dy="1em" x="6.50">将PCB插入就绪队列，等待被调度</tspan></text><g preserveAspectRatio="none" focusable="true" width="0" height="16"/><ellipse width="6" height="6" rx="3" ry="3" cx="5" cy="5" stroke-width="2" stroke="#0b5394" stroke-dasharray="" stroke-linecap="" fill="#6fb7f8" visibility="hidden" style="cursor: default; opacity: 0;"/></g><g preserveAspectRatio="none" focusable="true" width="100" height="100" transform="translate(336.04,126.58) scale(1.00,1.00)" test-id="303" visibility="visible" style="opacity: 1;"><rect width="257" height="31" rx="9" ry="9" x="-3" y="-3" stroke-width="1" stroke="#5199da" stroke-dasharray="" stroke-linecap="" fill="#5199da" stroke-opacity="0" fill-opacity="0" style="cursor: move;"/><rect width="251" height="25" rx="11" ry="11" x="0" y="0" stroke-width="2" stroke="#0b5394" stroke-dasharray="" stroke-linecap="" fill="#0b5394" style="cursor: move; opacity: 1;" visibility="visible"/><text font-family="Arial" font-size="10.8" font-style="normal" font-weight="normal" fill="#ffffff" visibility="visible" style="cursor: move; opacity: 1;" y="6.25" x="6.50"><tspan dy="1em" x="6.50">等待的事件发生（因何事阻塞，就应由何事唤醒）</tspan></text><g preserveAspectRatio="none" focusable="true" width="0" height="16"/><ellipse width="6" height="6" rx="3" ry="3" cx="5" cy="5" stroke-width="2" stroke="#0b5394" stroke-dasharray="" stroke-linecap="" fill="#6fb7f8" visibility="hidden" style="cursor: default; opacity: 0;"/></g><rect width="50" height="6" rx="0" ry="0" x="398" y="136" stroke-width="1" stroke="#FF9933" stroke-dasharray="" stroke-linecap="" fill="#CC0033" stroke-opacity="0.4" fill-opacity="0.4" visibility="hidden" style="opacity: 0;"/></svg>