<?xml version="1.0" encoding="utf-8" standalone="yes"?><svg xmlns:xlink="http://www.w3.org/1999/xlink" xmlns="http://www.w3.org/2000/svg" focusable="false" preserveAspectRatio="xMinYMin" width="462" height="194" viewBox="-84.66 -94.03 461.52  194.35" style="background-color:white"><polyline fill="none" stroke-width="2" stroke="#9fc5e8" stroke-dasharray="" stroke-linecap="" stroke-opacity="1" points="173.1957607269287, 50.176480293273926 196, 50.176480293273926 196, 50.176480293273926 196, 52.30838871002197 196, 52.30838871002197 204.1957607269287, 52.30838871002197" visibility="visible" style="opacity: 1;"/><polyline fill="none" stroke-width="2" stroke="#9fc5e8" stroke-dasharray="" stroke-linecap="" stroke-opacity="1" points="0, 0 65, 0 65, 0 65, 50.176480293273926 65, 50.176480293273926 86.65795654296875, 50.176480293273926" visibility="visible" style="opacity: 1;"/><polyline fill="none" stroke-width="2" stroke="#9fc5e8" stroke-dasharray="" stroke-linecap="" stroke-opacity="1" points="233.86125930786136, -2.131908416748047 257, -2.131908416748047 257, -2.131908416748047 257, 14.593585014343262 257, 14.593585014343262 264.8612593078613, 14.593585014343262" visibility="visible" style="opacity: 1;"/><polyline fill="none" stroke-width="2" stroke="#9fc5e8" stroke-dasharray="" stroke-linecap="" stroke-opacity="1" points="233.86125930786136, -2.131908416748047 257, -2.131908416748047 257, -2.131908416748047 257, -18.857401847839355 257, -18.857401847839355 264.8612593078613, -18.857401847839355" visibility="visible" style="opacity: 1;"/><polyline fill="none" stroke-width="2" stroke="#9fc5e8" stroke-dasharray="" stroke-linecap="" stroke-opacity="1" points="148.47062873840332, -18.857401847839355 172, -18.857401847839355 172, -18.857401847839355 172, -2.131908416748047 172, -2.131908416748047 179.47062873840332, -2.131908416748047" visibility="visible" style="opacity: 1;"/><polyline fill="none" stroke-width="2" stroke="#9fc5e8" stroke-dasharray="" stroke-linecap="" stroke-opacity="1" points="148.47062873840332, -18.857401847839355 172, -18.857401847839355 172, -18.857401847839355 172, -52.30838871002197 172, -52.30838871002197 179.47062873840335, -52.30838871002197" visibility="visible" style="opacity: 1;"/><polyline fill="none" stroke-width="2" stroke="#9fc5e8" stroke-dasharray="" stroke-linecap="" stroke-opacity="1" points="0, 0 65, 0 65, 0 65, -18.857401847839355 65, -18.857401847839355 86.65795654296875, -18.857401847839355" visibility="visible" style="opacity: 1;"/><rect width="92" height="32" rx="0" ry="0" x="83" y="35" stroke-width="1" stroke="#FF9933" stroke-dasharray="" stroke-linecap="" fill="#CC0033" stroke-opacity="0.4" fill-opacity="0.4" visibility="hidden" style="opacity: 0;"/><path d="M206.9,51.8  C195.7,51.6  184.4,50.9  173.2,50.2   184.4,51.3  195.7,52.3  206.9,52.8  Z" stroke-width="1" stroke="#CC0033" stroke-dasharray="" stroke-linecap="" stroke-opacity="0.4" fill-opacity="0.4" visibility="hidden" style="opacity: 0;"/><path d="M105.4,104.1  C70.3,69.7  35.1,34.9  0.0,0.0   35.1,35.3  70.3,70.4  105.4,105.1  Z" stroke-width="1" stroke="#CC0033" stroke-dasharray="" stroke-linecap="" stroke-opacity="0.4" fill-opacity="0.4" visibility="hidden" style="opacity: 0;"/><g preserveAspectRatio="none" focusable="true" width="100" height="100" transform="translate(-54.66,-14.92) scale(1.00,1.00)" test-id="1" visibility="visible" style="opacity: 1;"><rect width="115" height="36" rx="11" ry="11" x="-3" y="-3" stroke-width="1" stroke="#5199da" stroke-dasharray="" stroke-linecap="" fill="#5199da" stroke-opacity="0" fill-opacity="0" style="cursor: default;"/><rect width="109" height="30" rx="9" ry="9" x="0" y="0" stroke-width="2" stroke="#0b5394" stroke-dasharray="" stroke-linecap="" fill="#0b5394" visibility="visible" style="cursor: default; opacity: 1;"/><text font-family="Arial" font-size="13.4" font-style="normal" font-weight="bold" fill="#ffffff" visibility="visible" style="cursor: default; opacity: 1;" y="7.46" x="7.76"><tspan dy="1em" x="7.76">操作系统的接口</tspan></text><g preserveAspectRatio="none" focusable="true" width="0" height="19"/></g><g preserveAspectRatio="none" focusable="true" width="100" height="100" transform="translate(84.66,-32.71) scale(1.00,1.00)" test-id="117" visibility="visible" style="opacity: 1;"><rect width="69" height="34" rx="10" ry="10" x="-3" y="-3" stroke-width="1" stroke="#5199da" stroke-dasharray="" stroke-linecap="" fill="#5199da" stroke-opacity="0" fill-opacity="0" style="cursor: move;"/><rect width="63" height="28" rx="12" ry="12" x="0" y="0" stroke-width="2" stroke="#0b5394" stroke-dasharray="" stroke-linecap="" fill="#0b5394" style="cursor: move; opacity: 1;" visibility="visible"/><text font-family="Arial" font-size="12.1" font-style="normal" font-weight="normal" fill="#ffffff" visibility="visible" style="cursor: move; opacity: 1;" y="6.93" x="7.21"><tspan dy="1em" x="7.21">用户接口</tspan></text><g preserveAspectRatio="none" focusable="true" width="0" height="18"/><ellipse width="6" height="6" rx="3" ry="3" cx="66" cy="14" stroke-width="2" stroke="#0b5394" stroke-dasharray="" stroke-linecap="" fill="#6fb7f8" visibility="visible" style="cursor: default; opacity: 1;"/></g><g preserveAspectRatio="none" focusable="true" width="100" height="100" transform="translate(84.66,36.32) scale(1.00,1.00)" test-id="130" visibility="visible" style="opacity: 1;"><rect width="94" height="34" rx="10" ry="10" x="-3" y="-3" stroke-width="1" stroke="#5199da" stroke-dasharray="" stroke-linecap="" fill="#5199da" stroke-opacity="0" fill-opacity="0" style="cursor: move;"/><rect width="88" height="28" rx="12" ry="12" x="0" y="0" stroke-width="2" stroke="#0b5394" stroke-dasharray="" stroke-linecap="" fill="#0b5394" style="cursor: move; opacity: 1;" visibility="visible"/><text font-family="Arial" font-size="12.1" font-style="normal" font-weight="normal" fill="#ffffff" visibility="visible" style="cursor: move; opacity: 1;" y="6.93" x="7.21"><tspan dy="1em" x="7.21">应用程序接口</tspan></text><g preserveAspectRatio="none" focusable="true" width="0" height="18"/><ellipse width="6" height="6" rx="3" ry="3" cx="91" cy="14" stroke-width="2" stroke="#0b5394" stroke-dasharray="" stroke-linecap="" fill="#6fb7f8" visibility="visible" style="cursor: default; opacity: 1;"/></g><g preserveAspectRatio="none" focusable="true" width="100" height="100" transform="translate(177.47,-64.03) scale(1.00,1.00)" test-id="135" visibility="visible" style="opacity: 1;"><rect width="37" height="29" rx="9" ry="9" x="-3" y="-3" stroke-width="1" stroke="#5199da" stroke-dasharray="" stroke-linecap="" fill="#5199da" stroke-opacity="0" fill-opacity="0" style="cursor: move;"/><rect width="31" height="23" rx="11" ry="11" x="0" y="0" stroke-width="2" stroke="#0b5394" stroke-dasharray="" stroke-linecap="" fill="#0b5394" style="cursor: move; opacity: 1;" visibility="visible"/><text font-family="Arial" font-size="10.8" font-style="normal" font-weight="normal" fill="#ffffff" visibility="visible" style="cursor: move; opacity: 1;" y="5.86" x="6.10"><tspan dy="1em" x="6.10">GUI</tspan></text><g preserveAspectRatio="none" focusable="true" width="0" height="15"/><ellipse width="6" height="6" rx="3" ry="3" cx="5" cy="5" stroke-width="2" stroke="#0b5394" stroke-dasharray="" stroke-linecap="" fill="#6fb7f8" visibility="hidden" style="cursor: default; opacity: 0;"/></g><g preserveAspectRatio="none" focusable="true" width="100" height="100" transform="translate(177.47,-13.86) scale(1.00,1.00)" test-id="136" visibility="visible" style="opacity: 1;"><rect width="61" height="29" rx="9" ry="9" x="-3" y="-3" stroke-width="1" stroke="#5199da" stroke-dasharray="" stroke-linecap="" fill="#5199da" stroke-opacity="0" fill-opacity="0" style="cursor: move;"/><rect width="55" height="23" rx="11" ry="11" x="0" y="0" stroke-width="2" stroke="#0b5394" stroke-dasharray="" stroke-linecap="" fill="#0b5394" style="cursor: move; opacity: 1;" visibility="visible"/><text font-family="Arial" font-size="10.8" font-style="normal" font-weight="normal" fill="#ffffff" visibility="visible" style="cursor: move; opacity: 1;" y="5.86" x="6.10"><tspan dy="1em" x="6.10">命令接口</tspan></text><g preserveAspectRatio="none" focusable="true" width="0" height="15"/><ellipse width="6" height="6" rx="3" ry="3" cx="58" cy="12" stroke-width="2" stroke="#0b5394" stroke-dasharray="" stroke-linecap="" fill="#6fb7f8" visibility="visible" style="cursor: default; opacity: 1;"/></g><g preserveAspectRatio="none" focusable="true" width="100" height="100" transform="translate(262.86,-30.58) scale(1.00,1.00)" test-id="146" visibility="visible" style="opacity: 1;"><rect width="84" height="29" rx="9" ry="9" x="-3" y="-3" stroke-width="1" stroke="#5199da" stroke-dasharray="" stroke-linecap="" fill="#5199da" stroke-opacity="0" fill-opacity="0" style="cursor: move;"/><rect width="78" height="23" rx="11" ry="11" x="0" y="0" stroke-width="2" stroke="#0b5394" stroke-dasharray="" stroke-linecap="" fill="#0b5394" style="cursor: move; opacity: 1;" visibility="visible"/><text font-family="Arial" font-size="10.8" font-style="normal" font-weight="normal" fill="#ffffff" visibility="visible" style="cursor: move; opacity: 1;" y="5.86" x="6.10"><tspan dy="1em" x="6.10">联机命令接口</tspan></text><g preserveAspectRatio="none" focusable="true" width="0" height="15"/><ellipse width="6" height="6" rx="3" ry="3" cx="5" cy="5" stroke-width="2" stroke="#0b5394" stroke-dasharray="" stroke-linecap="" fill="#6fb7f8" visibility="hidden" style="cursor: default; opacity: 0;"/></g><g preserveAspectRatio="none" focusable="true" width="100" height="100" transform="translate(262.86,2.87) scale(1.00,1.00)" test-id="147" visibility="visible" style="opacity: 1;"><rect width="84" height="29" rx="9" ry="9" x="-3" y="-3" stroke-width="1" stroke="#5199da" stroke-dasharray="" stroke-linecap="" fill="#5199da" stroke-opacity="0" fill-opacity="0" style="cursor: move;"/><rect width="78" height="23" rx="11" ry="11" x="0" y="0" stroke-width="2" stroke="#0b5394" stroke-dasharray="" stroke-linecap="" fill="#0b5394" style="cursor: move; opacity: 1;" visibility="visible"/><text font-family="Arial" font-size="10.8" font-style="normal" font-weight="normal" fill="#ffffff" visibility="visible" style="cursor: move; opacity: 1;" y="5.86" x="6.10"><tspan dy="1em" x="6.10">脱机命令接口</tspan></text><g preserveAspectRatio="none" focusable="true" width="0" height="15"/><ellipse width="6" height="6" rx="3" ry="3" cx="5" cy="5" stroke-width="2" stroke="#0b5394" stroke-dasharray="" stroke-linecap="" fill="#6fb7f8" visibility="hidden" style="cursor: default; opacity: 0;"/></g><g preserveAspectRatio="none" focusable="true" width="100" height="100" transform="translate(202.20,40.58) scale(1.00,1.00)" test-id="148" visibility="visible" style="opacity: 1;"><rect width="61" height="29" rx="9" ry="9" x="-3" y="-3" stroke-width="1" stroke="#5199da" stroke-dasharray="" stroke-linecap="" fill="#5199da" stroke-opacity="0" fill-opacity="0" style="cursor: move;"/><rect width="55" height="23" rx="11" ry="11" x="0" y="0" stroke-width="2" stroke="#0b5394" stroke-dasharray="" stroke-linecap="" fill="#0b5394" style="cursor: move; opacity: 1;" visibility="visible"/><text font-family="Arial" font-size="10.8" font-style="normal" font-weight="normal" fill="#ffffff" visibility="visible" style="cursor: move; opacity: 1;" y="5.86" x="6.10"><tspan dy="1em" x="6.10">系统调用</tspan></text><g preserveAspectRatio="none" focusable="true" width="0" height="15"/><ellipse width="6" height="6" rx="3" ry="3" cx="5" cy="5" stroke-width="2" stroke="#0b5394" stroke-dasharray="" stroke-linecap="" fill="#6fb7f8" visibility="hidden" style="cursor: default; opacity: 0;"/></g><rect width="50" height="6" rx="0" ry="0" x="205" y="49" stroke-width="1" stroke="#FF9933" stroke-dasharray="" stroke-linecap="" fill="#CC0033" stroke-opacity="0.4" fill-opacity="0.4" visibility="hidden" style="opacity: 0;"/></svg>