<?xml version="1.0" encoding="UTF-8" standalone="no"?>
<!DOCTYPE svg PUBLIC "-//W3C//DTD SVG 1.1//EN" "http://www.w3.org/Graphics/SVG/1.1/DTD/svg11.dtd">
<!-- 由 Microsoft Visio, SVG Export 生成 操作系统-系统调用的过程1.svg Page-1 -->
<svg xmlns="http://www.w3.org/2000/svg" xmlns:xlink="http://www.w3.org/1999/xlink" xmlns:ev="http://www.w3.org/2001/xml-events"
		xmlns:v="http://schemas.microsoft.com/visio/2003/SVGExtensions/" width="8.38443in" height="5.12164in"
		viewBox="0 0 603.679 368.758" xml:space="preserve" color-interpolation-filters="sRGB" class="st15">
	<v:documentProperties v:langID="2052" v:metric="true" v:viewMarkup="false">
		<v:userDefs>
			<v:ud v:nameU="msvNoAutoConnect" v:val="VT0(1):26"/>
			<v:ud v:nameU="msvSubprocessMaster" v:prompt="" v:val="VT4(Process)"/>
		</v:userDefs>
	</v:documentProperties>

	<style type="text/css">
	<![CDATA[
		.st1 {fill:#ffffff;stroke:none;stroke-linecap:round;stroke-linejoin:round;stroke-width:0.75}
		.st2 {fill:#ffffff}
		.st3 {stroke:#000000;stroke-linecap:round;stroke-linejoin:round;stroke-width:0.75}
		.st4 {fill:#000000;font-family:宋体;font-size:1.00001em;font-weight:bold}
		.st5 {font-size:1em}
		.st6 {fill:#0070c0;stroke:#002060;stroke-linecap:round;stroke-linejoin:round;stroke-width:0.75}
		.st7 {fill:#ffffff;font-family:黑体;font-size:1.00001em}
		.st8 {fill:#ff9933;stroke:#002060;stroke-linecap:round;stroke-linejoin:round;stroke-width:0.75}
		.st9 {fill:#92d050}
		.st10 {stroke:none;stroke-linecap:round;stroke-linejoin:round;stroke-width:0.75}
		.st11 {stroke:#000000;stroke-linecap:round;stroke-linejoin:round;stroke-width:0.24}
		.st12 {fill:#ffffff;stroke:none;stroke-linecap:round;stroke-linejoin:round;stroke-width:0.24;visibility:hidden}
		.st13 {fill:none;stroke:none;stroke-linecap:round;stroke-linejoin:round;stroke-width:0.75}
		.st14 {fill:#000000;font-family:黑体;font-size:1.00001em}
		.st15 {fill:none;fill-rule:evenodd;font-size:12px;overflow:visible;stroke-linecap:square;stroke-miterlimit:3}
	]]>
	</style>

	<g v:mID="0" v:index="1" v:groupContext="foregroundPage">
		<v:userDefs>
			<v:ud v:nameU="msvThemeOrder" v:val="VT0(0):26"/>
		</v:userDefs>
		<title>页-1</title>
		<v:pageProperties v:drawingScale="0.0393701" v:pageScale="0.0393701" v:drawingUnits="24" v:shadowOffsetX="8.50394"
				v:shadowOffsetY="-8.50394"/>
		<g id="shape40-1" v:mID="40" v:groupContext="shape" transform="translate(18,-18)">
			<title>框</title>
			<v:userDefs>
				<v:ud v:nameU="visVersion" v:val="VT0(15):26"/>
			</v:userDefs>
			<rect x="0" y="36.75" width="566.929" height="332.008" class="st1"/>
		</g>
		<g id="shape6-3" v:mID="6" v:groupContext="shape" transform="translate(50.3472,-78.421)">
			<title>模拟运算表</title>
			<desc>代码1 代码2 调用库函数 代码4 代码5 ......</desc>
			<v:userDefs>
				<v:ud v:nameU="AntiScale" v:val="VT0(1):26"/>
				<v:ud v:nameU="visVersion" v:val="VT0(15):26"/>
			</v:userDefs>
			<v:textBlock v:margins="rect(0,4,4,4)" v:tabSpace="42.5197" v:verticalAlign="0"/>
			<v:textRect cx="53.0672" cy="247.032" width="106.14" height="187.087"/>
			<path d="M0 340.58 L106.13 340.58 L106.13 153.49 L0 153.49 L0 340.58 Z" class="st2"/>
			<path d="M0 340.58 L106.13 340.58 L106.13 153.49 L0 153.49 L0 340.58" class="st3"/>
			<path d="M0 184.67 L106.13 184.67" class="st3"/>
			<path d="M0 215.85 L106.13 215.85" class="st3"/>
			<path d="M0 247.03 L106.13 247.03" class="st3"/>
			<path d="M0 278.21 L106.13 278.21" class="st3"/>
			<path d="M0 309.39 L106.13 309.39" class="st3"/>
			<text x="4" y="176.87" class="st4" v:langID="2052"><v:paragraph v:spLine="0.433071"/><v:tabList/>代码1<v:newlineChar/><tspan
						x="4" dy="2.598em" class="st5">代码</tspan>2<v:newlineChar/><tspan x="4" dy="2.598em" class="st5">调用库函数<v:newlineChar/></tspan><tspan
						x="4" dy="2.598em" class="st5">代码</tspan>4<v:newlineChar/><tspan x="4" dy="2.598em" class="st5">代码</tspan>5<v:newlineChar/><tspan
						x="4" dy="2.598em" class="st5">......</tspan></text>		</g>
		<g id="shape7-17" v:mID="7" v:groupContext="shape" transform="translate(248.772,-78.421)">
			<title>模拟运算表.7</title>
			<desc>...... 前期处理相关指令 传参指令 陷入指令 后续处理相关指令 ......</desc>
			<v:userDefs>
				<v:ud v:nameU="AntiScale" v:val="VT0(1):26"/>
				<v:ud v:nameU="visVersion" v:val="VT0(15):26"/>
			</v:userDefs>
			<v:textBlock v:margins="rect(0,4,4,4)" v:tabSpace="42.5197" v:verticalAlign="0"/>
			<v:textRect cx="53.0672" cy="247.032" width="106.14" height="187.087"/>
			<path d="M0 340.58 L106.13 340.58 L106.13 153.49 L0 153.49 L0 340.58 Z" class="st2"/>
			<path d="M0 340.58 L106.13 340.58 L106.13 153.49 L0 153.49 L0 340.58" class="st3"/>
			<path d="M0 184.67 L106.13 184.67" class="st3"/>
			<path d="M0 215.85 L106.13 215.85" class="st3"/>
			<path d="M0 247.03 L106.13 247.03" class="st3"/>
			<path d="M0 278.21 L106.13 278.21" class="st3"/>
			<path d="M0 309.39 L106.13 309.39" class="st3"/>
			<text x="4" y="176.87" class="st4" v:langID="2052"><v:paragraph v:spLine="0.433071"/><v:tabList/>......<v:newlineChar/><tspan
						x="4" dy="2.598em" class="st5">前期处理相关指令<v:newlineChar/></tspan><tspan x="4" dy="2.598em" class="st5">传参指令<v:newlineChar/></tspan><tspan
						x="4" dy="2.598em" class="st5">陷入指令<v:newlineChar/></tspan><tspan x="4" dy="2.598em" class="st5">后续处理相关指令<v:newlineChar/></tspan><tspan
						x="4" dy="2.598em" class="st5">......</tspan></text>		</g>
		<g id="shape8-31" v:mID="8" v:groupContext="shape" transform="translate(447.198,-176.052)">
			<title>模拟运算表.8</title>
			<desc>...... 返回</desc>
			<v:userDefs>
				<v:ud v:nameU="AntiScale" v:val="VT0(1):26"/>
				<v:ud v:nameU="visVersion" v:val="VT0(15):26"/>
			</v:userDefs>
			<v:textBlock v:margins="rect(0,4,4,4)" v:tabSpace="42.5197" v:verticalAlign="0"/>
			<v:textRect cx="53.0672" cy="330.572" width="106.14" height="62.3622"/>
			<path d="M0 361.75 L106.13 361.75 L106.13 299.39 L0 299.39 L0 361.75 Z" class="st2"/>
			<path d="M0 361.75 L106.13 361.75 L106.13 299.39 L0 299.39 L0 361.75" class="st3"/>
			<path d="M0 330.57 L106.13 330.57" class="st3"/>
			<text x="4" y="322.78" class="st4" v:langID="2052"><v:paragraph v:spLine="0.433071"/><v:tabList/>......<v:newlineChar/><tspan
						x="4" dy="2.598em" class="st5">返回</tspan></text>		</g>
		<g id="shape11-37" v:mID="11" v:groupContext="shape" transform="translate(50.3472,-293.69)">
			<title>矩形</title>
			<desc>高级语言代码</desc>
			<v:userDefs>
				<v:ud v:nameU="visVersion" v:val="VT0(15):26"/>
			</v:userDefs>
			<v:textBlock v:margins="rect(4,4,4,4)" v:tabSpace="42.5197"/>
			<v:textRect cx="53.0672" cy="354.585" width="106.14" height="28.3465"/>
			<rect x="0" y="340.411" width="106.134" height="28.3465" class="st6"/>
			<text x="4" y="358.58" class="st7" v:langID="2052"><v:paragraph/><v:tabList/>高级语言代码</text>		</g>
		<g id="shape12-40" v:mID="12" v:groupContext="shape" transform="translate(248.772,-293.69)">
			<title>矩形.12</title>
			<desc>机器语言指令</desc>
			<v:userDefs>
				<v:ud v:nameU="visVersion" v:val="VT0(15):26"/>
			</v:userDefs>
			<v:textBlock v:margins="rect(4,4,4,4)" v:tabSpace="42.5197"/>
			<v:textRect cx="53.0672" cy="354.585" width="106.14" height="28.3465"/>
			<rect x="0" y="340.411" width="106.134" height="28.3465" class="st6"/>
			<text x="4" y="358.58" class="st7" v:langID="2052"><v:paragraph/><v:tabList/>机器语言指令</text>		</g>
		<g id="shape13-43" v:mID="13" v:groupContext="shape" transform="translate(447.198,-245.237)">
			<title>矩形.13</title>
			<desc>开始</desc>
			<v:userDefs>
				<v:ud v:nameU="visVersion" v:val="VT0(15):26"/>
			</v:userDefs>
			<v:textBlock v:margins="rect(4,4,4,4)" v:tabSpace="42.5197"/>
			<v:textRect cx="53.0672" cy="354.585" width="106.14" height="28.3465"/>
			<rect x="0" y="340.411" width="106.134" height="28.3465" class="st8"/>
			<text x="4" y="358.58" class="st7" v:langID="2052"><v:paragraph/><v:tabList/>开始</text>		</g>
		<g id="group14-46" transform="translate(156.482,-293.69)" v:mID="14" v:groupContext="group">
			<v:userDefs>
				<v:ud v:nameU="visVersion" v:val="VT0(15):26"/>
			</v:userDefs>
			<title>一维单向箭头</title>
			<g id="shape15-47" v:mID="15" v:groupContext="shape">
				<title>工作表.15</title>
				<path d="M0 361.67 L85.2 361.67 L85.2 368.76 L92.29 354.58 L85.2 340.41 L85.2 347.5 L0 347.5 L0 361.67 Z"
						class="st9"/>
				<path d="M0 361.67 L85.2 361.67 L85.2 368.76 L92.29 354.58 L85.2 340.41 L85.2 347.5 L0 347.5" class="st10"/>
			</g>
			<g id="shape16-50" v:mID="16" v:groupContext="shape">
				<title>工作表.16</title>
				<path d="M0 361.67 L85.2 361.67 L85.2 368.76 L92.29 354.58 L85.2 340.41 L85.2 347.5 L0 347.5 L0 361.67"
						class="st11"/>
			</g>
			<g id="shape17-53" v:mID="17" v:groupContext="shape" transform="translate(-1.18337,-7.20661)">
				<title>工作表.17</title>
				<rect x="0" y="354.825" width="0.52093" height="13.9332" class="st12"/>
			</g>
		</g>
		<g id="shape18-55" v:mID="18" v:groupContext="shape" transform="translate(126.627,-297.863)">
			<title>工作表.18</title>
			<desc>编译</desc>
			<v:textBlock v:margins="rect(4,4,4,4)" v:tabSpace="42.5197"/>
			<v:textRect cx="76" cy="358.758" width="152" height="20"/>
			<rect x="0" y="348.758" width="152" height="20" class="st13"/>
			<text x="64" y="362.75" class="st14" v:langID="2052"><v:paragraph v:horizAlign="1"/><v:tabList/>编译</text>		</g>
		<g id="group20-58" transform="translate(112.035,-64.9658) rotate(-45)" v:mID="20" v:groupContext="group">
			<v:userDefs>
				<v:ud v:nameU="visVersion" v:val="VT0(15):26"/>
			</v:userDefs>
			<title>一维单向箭头.20</title>
			<g id="shape21-59" v:mID="21" v:groupContext="shape">
				<title>工作表.21</title>
				<path d="M0 364.51 L109.49 364.51 L109.49 368.76 L113.74 360.25 L109.49 351.75 L109.49 356 L0 356 L0 364.51 Z"
						class="st2"/>
				<path d="M0 364.51 L109.49 364.51 L109.49 368.76 L113.74 360.25 L109.49 351.75 L109.49 356 L0 356" class="st10"/>
			</g>
			<g id="shape22-62" v:mID="22" v:groupContext="shape">
				<title>工作表.22</title>
				<path d="M0 364.51 L109.49 364.51 L109.49 368.76 L113.74 360.25 L109.49 351.75 L109.49 356 L0 356 L0 364.51"
						class="st11"/>
			</g>
			<g id="shape23-65" v:mID="23" v:groupContext="shape" transform="translate(-1.45837,-4.32397)">
				<title>工作表.23</title>
				<rect x="0" y="360.398" width="0.641987" height="8.35994" class="st12"/>
			</g>
		</g>
		<g id="group24-67" transform="translate(495.679,542.678) rotate(172.266)" v:mID="24" v:groupContext="group">
			<v:userDefs>
				<v:ud v:nameU="visVersion" v:val="VT0(15):26"/>
			</v:userDefs>
			<title>一维单向箭头.24</title>
			<g id="shape25-68" v:mID="25" v:groupContext="shape">
				<title>工作表.25</title>
				<path d="M0 364.51 L74.37 364.51 L74.37 368.76 L78.62 360.25 L74.37 351.75 L74.37 356 L0 356 L0 364.51 Z"
						class="st2"/>
				<path d="M0 364.51 L74.37 364.51 L74.37 368.76 L78.62 360.25 L74.37 351.75 L74.37 356 L0 356" class="st10"/>
			</g>
			<g id="shape26-71" v:mID="26" v:groupContext="shape">
				<title>工作表.26</title>
				<path d="M0 364.51 L74.37 364.51 L74.37 368.76 L78.62 360.25 L74.37 351.75 L74.37 356 L0 356 L0 364.51"
						class="st11"/>
			</g>
			<g id="shape27-74" v:mID="27" v:groupContext="shape" transform="translate(-1.00809,-4.32397)">
				<title>工作表.27</title>
				<rect x="0" y="360.398" width="0.443767" height="8.35994" class="st12"/>
			</g>
		</g>
		<g id="group28-76" transform="translate(729.334,122.861) rotate(90)" v:mID="28" v:groupContext="group">
			<v:userDefs>
				<v:ud v:nameU="visVersion" v:val="VT0(15):26"/>
			</v:userDefs>
			<title>一维单向箭头.28</title>
			<g id="shape29-77" v:mID="29" v:groupContext="shape">
				<title>工作表.29</title>
				<path d="M0 364.51 L47.17 364.51 L47.17 368.76 L51.42 360.25 L47.17 351.75 L47.17 356 L0 356 L0 364.51 Z"
						class="st2"/>
				<path d="M0 364.51 L47.17 364.51 L47.17 368.76 L51.42 360.25 L47.17 351.75 L47.17 356 L0 356" class="st10"/>
			</g>
			<g id="shape30-80" v:mID="30" v:groupContext="shape">
				<title>工作表.30</title>
				<path d="M0 364.51 L47.17 364.51 L47.17 368.76 L51.42 360.25 L47.17 351.75 L47.17 356 L0 356 L0 364.51"
						class="st11"/>
			</g>
			<g id="shape31-83" v:mID="31" v:groupContext="shape" transform="translate(-0.659308,-4.32397)">
				<title>工作表.31</title>
				<rect x="0" y="360.398" width="0.290233" height="8.35994" class="st12"/>
			</g>
		</g>
		<g id="group32-85" transform="translate(729.334,202.627) rotate(90)" v:mID="32" v:groupContext="group">
			<v:userDefs>
				<v:ud v:nameU="visVersion" v:val="VT0(15):26"/>
			</v:userDefs>
			<title>一维单向箭头.32</title>
			<g id="shape33-86" v:mID="33" v:groupContext="shape">
				<title>工作表.33</title>
				<path d="M0 364.51 L47.17 364.51 L47.17 368.76 L51.42 360.25 L47.17 351.75 L47.17 356 L0 356 L0 364.51 Z"
						class="st2"/>
				<path d="M0 364.51 L47.17 364.51 L47.17 368.76 L51.42 360.25 L47.17 351.75 L47.17 356 L0 356" class="st10"/>
			</g>
			<g id="shape34-89" v:mID="34" v:groupContext="shape">
				<title>工作表.34</title>
				<path d="M0 364.51 L47.17 364.51 L47.17 368.76 L51.42 360.25 L47.17 351.75 L47.17 356 L0 356 L0 364.51"
						class="st11"/>
			</g>
			<g id="shape35-92" v:mID="35" v:groupContext="shape" transform="translate(-0.659308,-4.32397)">
				<title>工作表.35</title>
				<rect x="0" y="360.398" width="0.290233" height="8.35994" class="st12"/>
			</g>
		</g>
		<g id="shape36-94" v:mID="36" v:groupContext="shape" transform="translate(27.4144,-58.421)">
			<title>工作表.36</title>
			<desc>应用程序 高级语言视角</desc>
			<v:textBlock v:margins="rect(4,4,4,4)" v:tabSpace="42.5197"/>
			<v:textRect cx="76" cy="358.758" width="152" height="20"/>
			<rect x="0" y="348.758" width="152" height="20" class="st13"/>
			<text x="52" y="354.76" class="st14" v:langID="2052"><v:paragraph v:horizAlign="1"/><v:tabList/>应用程序<v:newlineChar/><tspan
						x="28" dy="1.331em" class="st5">（</tspan>高级语言视角）</text>		</g>
		<g id="shape38-98" v:mID="38" v:groupContext="shape" transform="translate(225.84,-58.421)">
			<title>工作表.38</title>
			<desc>应用程序 机器语言视角 运行在用户态</desc>
			<v:textBlock v:margins="rect(4,4,4,4)" v:tabSpace="42.5197"/>
			<v:textRect cx="76" cy="358.758" width="152" height="20"/>
			<rect x="0" y="348.758" width="152" height="20" class="st13"/>
			<text x="52" y="346.78" class="st14" v:langID="2052"><v:paragraph v:horizAlign="1"/><v:tabList/>应用程序<v:newlineChar/><tspan
						x="28" dy="1.331em" class="st5">（</tspan>机器语言视角）<v:newlineChar/><tspan x="40" dy="1.331em" class="st5">运行在用户态</tspan></text>		</g>
		<g id="shape39-103" v:mID="39" v:groupContext="shape" transform="translate(424.265,-137.784)">
			<title>工作表.39</title>
			<desc>处理系统调用 的内核程序 运行在内核态</desc>
			<v:textBlock v:margins="rect(4,4,4,4)" v:tabSpace="42.5197"/>
			<v:textRect cx="76" cy="358.758" width="152" height="20"/>
			<rect x="0" y="348.758" width="152" height="20" class="st13"/>
			<text x="40" y="346.78" class="st14" v:langID="2052"><v:paragraph v:horizAlign="1"/><v:tabList/>处理系统调用<v:newlineChar/><tspan
						x="46" dy="1.331em" class="st5">的内核程序<v:newlineChar/></tspan><tspan x="40" dy="1.331em" class="st5">运行在内核态</tspan></text>		</g>
	</g>
</svg>
