<?xml version="1.0" encoding="UTF-8" standalone="no"?>
<!DOCTYPE svg PUBLIC "-//W3C//DTD SVG 1.1//EN" "http://www.w3.org/Graphics/SVG/1.1/DTD/svg11.dtd">
<!-- 由 Microsoft Visio, SVG Export 生成 操作系统-系统调用的作用1.svg Page-1 -->
<svg xmlns="http://www.w3.org/2000/svg" xmlns:xlink="http://www.w3.org/1999/xlink" xmlns:ev="http://www.w3.org/2001/xml-events"
		xmlns:v="http://schemas.microsoft.com/visio/2003/SVGExtensions/" width="3.77179in" height="2.81282in"
		viewBox="0 0 271.569 202.523" xml:space="preserve" color-interpolation-filters="sRGB" class="st10">
	<v:documentProperties v:langID="2052" v:metric="true" v:viewMarkup="false">
		<v:userDefs>
			<v:ud v:nameU="msvSubprocessMaster" v:prompt="" v:val="VT4(Rectangle)"/>
			<v:ud v:nameU="msvNoAutoConnect" v:val="VT0(1):26"/>
		</v:userDefs>
	</v:documentProperties>

	<style type="text/css">
	<![CDATA[
		.st1 {fill:#c5e0b3;stroke:#3f3f3f;stroke-width:0.5}
		.st2 {fill:#ffffff;font-family:宋体;font-size:1.00001em;font-weight:bold}
		.st3 {fill:#538135;stroke:#3f3f3f;stroke-width:0.5}
		.st4 {fill:#538135;stroke:#375623;stroke-width:0.75}
		.st5 {fill:none;stroke:none;stroke-width:0.25}
		.st6 {fill:#ffffff;font-family:Calibri;font-size:1.00001em}
		.st7 {fill:#fec000;stroke:#c8c8c8;stroke-width:0.25}
		.st8 {fill:#feffff;font-family:黑体;font-size:0.666664em;font-weight:bold}
		.st9 {font-size:1em}
		.st10 {fill:none;fill-rule:evenodd;font-size:12px;overflow:visible;stroke-linecap:square;stroke-miterlimit:3}
	]]>
	</style>

	<g v:mID="0" v:index="1" v:groupContext="foregroundPage">
		<v:userDefs>
			<v:ud v:nameU="msvThemeOrder" v:val="VT0(0):26"/>
		</v:userDefs>
		<title>页-1</title>
		<v:pageProperties v:drawingScale="0.0393701" v:pageScale="0.0393701" v:drawingUnits="24" v:shadowOffsetX="8.50394"
				v:shadowOffsetY="-8.50394"/>
		<v:layer v:name="批注" v:index="0"/>
		<g id="shape14-1" v:mID="14" v:groupContext="shape" transform="translate(47.5571,-103.201)">
			<title>矩形</title>
			<desc>用户</desc>
			<v:userDefs>
				<v:ud v:nameU="visVersion" v:val="VT0(15):26"/>
			</v:userDefs>
			<v:textBlock v:margins="rect(16,4,4,4)" v:tabSpace="42.5197" v:verticalAlign="0"/>
			<v:textRect cx="102.756" cy="162.112" width="205.52" height="80.8218"/>
			<rect x="0" y="121.701" width="205.512" height="80.8218" class="st1"/>
			<text x="90.71" y="148.5" class="st2" v:langID="2052"><v:paragraph v:spBefore="20" v:horizAlign="1"/><v:tabList/>用户</text>		</g>
		<g id="shape15-4" v:mID="15" v:groupContext="shape" transform="translate(80.1555,-99.4393)">
			<title>矩形.15</title>
			<desc>应用程序软件</desc>
			<v:userDefs>
				<v:ud v:nameU="visVersion" v:val="VT0(15):26"/>
			</v:userDefs>
			<v:textBlock v:margins="rect(4,4,4,4)" v:tabSpace="42.5197"/>
			<v:textRect cx="86.4567" cy="181.415" width="172.92" height="42.216"/>
			<rect x="0" y="160.307" width="172.913" height="42.216" class="st3"/>
			<text x="38.27" y="185.02" class="st2" v:langID="2052"><v:paragraph v:horizAlign="1"/><v:tabList/>应用程序（软件）</text>		</g>
		<g id="shape16-7" v:mID="16" v:groupContext="shape" transform="translate(47.5571,-60.8678)">
			<title>矩形.16</title>
			<desc>操作系统</desc>
			<v:userDefs>
				<v:ud v:nameU="visVersion" v:val="VT0(15):26"/>
			</v:userDefs>
			<v:textBlock v:margins="rect(4,4,4,4)" v:tabSpace="42.5197"/>
			<v:textRect cx="102.756" cy="181.415" width="205.52" height="42.216"/>
			<rect x="0" y="160.307" width="205.512" height="42.216" class="st1"/>
			<text x="78.66" y="185.02" class="st2" v:langID="2052"><v:paragraph v:horizAlign="1"/><v:tabList/>操作系统</text>		</g>
		<g id="shape17-10" v:mID="17" v:groupContext="shape" transform="translate(47.5571,-18.5)">
			<title>矩形.17</title>
			<desc>裸机纯硬件</desc>
			<v:userDefs>
				<v:ud v:nameU="visVersion" v:val="VT0(15):26"/>
			</v:userDefs>
			<v:textBlock v:margins="rect(4,4,4,4)" v:tabSpace="42.5197"/>
			<v:textRect cx="102.756" cy="181.415" width="205.52" height="42.216"/>
			<rect x="0" y="160.307" width="205.512" height="42.216" class="st3"/>
			<text x="60.59" y="185.02" class="st2" v:langID="2052"><v:paragraph v:horizAlign="1"/><v:tabList/>裸机（纯硬件）</text>		</g>
		<g id="shape18-13" v:mID="18" v:groupContext="shape" transform="translate(224.982,28.1176) rotate(90)">
			<title>普通箭头</title>
			<v:userDefs>
				<v:ud v:nameU="visVersion" v:val="VT0(15):26"/>
				<v:ud v:nameU="ArrowType" v:prompt="" v:val="VT0(2):26"/>
			</v:userDefs>
			<path d="M0 202.52 L11.34 198.81 L11.34 200.67 L152.5 200.67 L152.5 202.52 L152.5 204.38 L11.34 204.38 L11.34 206.23
						 L0 202.52 Z" class="st4"/>
		</g>
		<g id="shape33-15" v:mID="33" v:groupContext="shape" transform="translate(-138.428,80.4206) rotate(-89.5388) scale(-1,1)">
			<title>普通箭头.33</title>
			<v:userDefs>
				<v:ud v:nameU="visVersion" v:val="VT0(15):26"/>
				<v:ud v:nameU="ArrowType" v:prompt="" v:val="VT0(2):26"/>
			</v:userDefs>
			<path d="M0 202.52 L11.34 191.18 L11.34 196.85 L24.21 196.85 L24.21 202.52 L24.21 208.19 L11.34 208.19 L11.34 213.86
						 L0 202.52 Z" class="st4"/>
		</g>
		<g id="shape37-17" v:mID="37" v:groupContext="shape" transform="translate(-12.2205,-96.2747)">
			<title>工作表.37</title>
			<desc>2</desc>
			<v:textBlock v:margins="rect(4,4,4,4)" v:tabSpace="42.5197"/>
			<v:textRect cx="76" cy="192.523" width="152.01" height="20"/>
			<rect x="0" y="182.523" width="152" height="20" class="st5"/>
			<text x="72.96" y="196.12" class="st6" v:langID="2052"><v:paragraph v:horizAlign="1"/><v:tabList/>2</text>		</g>
		<g id="shape38-20" v:mID="38" v:groupContext="shape" transform="translate(-72.6956,80.4206) rotate(-89.5388) scale(-1,1)">
			<title>普通箭头.38</title>
			<v:userDefs>
				<v:ud v:nameU="visVersion" v:val="VT0(15):26"/>
				<v:ud v:nameU="ArrowType" v:prompt="" v:val="VT0(2):26"/>
			</v:userDefs>
			<path d="M0 202.52 L11.34 191.18 L11.34 196.85 L24.21 196.85 L24.21 202.52 L24.21 208.19 L11.34 208.19 L11.34 213.86
						 L0 202.52 Z" class="st4"/>
		</g>
		<g id="shape39-22" v:mID="39" v:groupContext="shape" transform="translate(53.5118,-96.2747)">
			<title>工作表.39</title>
			<desc>1</desc>
			<v:textBlock v:margins="rect(4,4,4,4)" v:tabSpace="42.5197"/>
			<v:textRect cx="76" cy="192.523" width="152.01" height="20"/>
			<rect x="0" y="182.523" width="152" height="20" class="st5"/>
			<text x="72.96" y="196.12" class="st6" v:langID="2052"><v:paragraph v:horizAlign="1"/><v:tabList/>1</text>		</g>
		<g id="shape47-25" v:mID="47" v:groupContext="shape" transform="translate(157.972,-127.559)">
			<title>二维文字提示框</title>
			<desc>程序接口 系统调用</desc>
			<v:userDefs>
				<v:ud v:nameU="Scale" v:val="VT0(1):26"/>
				<v:ud v:nameU="AntiScale" v:val="VT0(1):26"/>
				<v:ud v:nameU="visVersion" v:val="VT0(15):26"/>
			</v:userDefs>
			<v:textBlock v:margins="rect(4,4,4,4)" v:tabSpace="42.5197"/>
			<v:textRect cx="29.6752" cy="181.415" width="59.36" height="42.216"/>
			<path d="M0 176.14 L0 160.31 L22.26 160.31 L29.68 160.31 L37.09 160.31 L59.35 160.31 L59.35 176.14 L59.35 181.42 L59.35
						 186.69 L59.35 202.52 L37.09 202.52 L29.68 202.52 L22.26 202.52 L0 202.52 L0 186.69 L-28.35 216.7 L0 176.14
						 Z" class="st7"/>
			<text x="13.61" y="178.75" class="st8" v:langID="2052"><v:paragraph v:horizAlign="1"/><v:tabList/>程序接口<v:newlineChar/><tspan
						x="5.58" dy="1.331em" class="st9">（</tspan>系统调用）</text>		</g>
		<g id="shape48-29" v:mID="48" v:groupContext="shape" transform="translate(92.126,-127.559)">
			<title>二维文字提示框.48</title>
			<desc>命令接口</desc>
			<v:userDefs>
				<v:ud v:nameU="Scale" v:val="VT0(1):26"/>
				<v:ud v:nameU="AntiScale" v:val="VT0(1):26"/>
				<v:ud v:nameU="visVersion" v:val="VT0(15):26"/>
			</v:userDefs>
			<v:textBlock v:margins="rect(4,4,4,4)" v:tabSpace="42.5197"/>
			<v:textRect cx="21.2598" cy="187.401" width="42.52" height="30.2443"/>
			<path d="M0 183.62 L0 172.28 L15.94 172.28 L21.26 172.28 L26.57 172.28 L42.52 172.28 L42.52 183.62 L42.52 187.4 L42.52
						 191.18 L42.52 202.52 L26.57 202.52 L21.26 202.52 L15.94 202.52 L0 202.52 L0 191.18 L-28.35 216.7 L0 183.62
						 Z" class="st7"/>
			<text x="5.2" y="190.06" class="st8" v:langID="2052"><v:paragraph v:horizAlign="1"/><v:tabList/>命令接口</text>		</g>
	</g>
</svg>
