<?xml version="1.0" encoding="UTF-8" standalone="no"?>
<!DOCTYPE svg PUBLIC "-//W3C//DTD SVG 1.1//EN" "http://www.w3.org/Graphics/SVG/1.1/DTD/svg11.dtd">
<!-- 由 Microsoft Visio, SVG Export 生成 操作系统-进程-进程状态转换图.svg Page-1 -->
<svg xmlns="http://www.w3.org/2000/svg" xmlns:xlink="http://www.w3.org/1999/xlink" xmlns:ev="http://www.w3.org/2001/xml-events"
		xmlns:v="http://schemas.microsoft.com/visio/2003/SVGExtensions/" width="9.58685in" height="4.1186in"
		viewBox="0 0 690.253 296.539" xml:space="preserve" color-interpolation-filters="sRGB" class="st8">
	<v:documentProperties v:langID="2052" v:metric="true" v:viewMarkup="false">
		<v:userDefs>
			<v:ud v:nameU="msvSubprocessMaster" v:prompt="" v:val="VT4(Rectangle)"/>
			<v:ud v:nameU="msvNoAutoConnect" v:val="VT0(1):26"/>
		</v:userDefs>
	</v:documentProperties>

	<style type="text/css">
	<![CDATA[
		.st1 {fill:#4672c4;stroke:#c7c8c8;stroke-width:0.25}
		.st2 {fill:#feffff;font-family:宋体;font-size:1.00001em;font-weight:bold}
		.st3 {fill:#c55a11;stroke:#c7c8c8;stroke-width:0.25}
		.st4 {fill:#a8d08d;stroke:#375623;stroke-width:0.75}
		.st5 {fill:#a8d08d;stroke:#4672c4;stroke-linecap:round;stroke-linejoin:round;stroke-width:1}
		.st6 {fill:#ffffff;font-family:宋体;font-size:1.00001em;font-weight:bold}
		.st7 {font-size:1em}
		.st8 {fill:none;fill-rule:evenodd;font-size:12px;overflow:visible;stroke-linecap:square;stroke-miterlimit:3}
	]]>
	</style>

	<g v:mID="0" v:index="1" v:groupContext="foregroundPage">
		<v:userDefs>
			<v:ud v:nameU="msvThemeOrder" v:val="VT0(0):26"/>
		</v:userDefs>
		<title>页-1</title>
		<v:pageProperties v:drawingScale="0.0393701" v:pageScale="0.0393701" v:drawingUnits="24" v:shadowOffsetX="8.50394"
				v:shadowOffsetY="-8.50394"/>
		<v:layer v:name="批注" v:index="0"/>
		<g id="shape1-1" v:mID="1" v:groupContext="shape" transform="translate(209.063,-180.131)">
			<title>椭圆形</title>
			<desc>就绪态</desc>
			<v:userDefs>
				<v:ud v:nameU="visVersion" v:val="VT0(15):26"/>
			</v:userDefs>
			<v:textBlock v:margins="rect(4,4,4,4)" v:tabSpace="42.5197"/>
			<v:textRect cx="40.6563" cy="269.435" width="71.15" height="47.4323"/>
			<path d="M0 269.43 A40.6563 27.1042 0 0 1 81.31 269.43 A40.6563 27.1042 0 0 1 -0 269.43 Z" class="st1"/>
			<text x="22.59" y="273.04" class="st2" v:langID="2052"><v:paragraph v:horizAlign="1"/><v:tabList/>就绪态</text>		</g>
		<g id="shape2-4" v:mID="2" v:groupContext="shape" transform="translate(399.877,-180.131)">
			<title>椭圆形.2</title>
			<desc>运行态</desc>
			<v:userDefs>
				<v:ud v:nameU="visVersion" v:val="VT0(15):26"/>
			</v:userDefs>
			<v:textBlock v:margins="rect(4,4,4,4)" v:tabSpace="42.5197"/>
			<v:textRect cx="40.6563" cy="269.435" width="71.15" height="47.4323"/>
			<path d="M0 269.43 A40.6563 27.1042 0 0 1 81.31 269.43 A40.6563 27.1042 0 0 1 -0 269.43 Z" class="st1"/>
			<text x="22.59" y="273.04" class="st2" v:langID="2052"><v:paragraph v:horizAlign="1"/><v:tabList/>运行态</text>		</g>
		<g id="shape3-7" v:mID="3" v:groupContext="shape" transform="translate(304.47,-63.5834)">
			<title>椭圆形.3</title>
			<desc>就绪态</desc>
			<v:userDefs>
				<v:ud v:nameU="visVersion" v:val="VT0(15):26"/>
			</v:userDefs>
			<v:textBlock v:margins="rect(4,4,4,4)" v:tabSpace="42.5197"/>
			<v:textRect cx="40.6563" cy="269.435" width="71.15" height="47.4323"/>
			<path d="M0 269.43 A40.6563 27.1042 0 0 1 81.31 269.43 A40.6563 27.1042 0 0 1 -0 269.43 Z" class="st1"/>
			<text x="22.59" y="273.04" class="st2" v:langID="2052"><v:paragraph v:horizAlign="1"/><v:tabList/>就绪态</text>		</g>
		<g id="shape4-10" v:mID="4" v:groupContext="shape" transform="translate(18.25,-180.131)">
			<title>椭圆形.4</title>
			<desc>创建态</desc>
			<v:userDefs>
				<v:ud v:nameU="visVersion" v:val="VT0(15):26"/>
			</v:userDefs>
			<v:textBlock v:margins="rect(4,4,4,4)" v:tabSpace="42.5197"/>
			<v:textRect cx="40.6563" cy="269.435" width="71.15" height="47.4323"/>
			<path d="M0 269.43 A40.6563 27.1042 0 0 1 81.31 269.43 A40.6563 27.1042 0 0 1 -0 269.43 Z" class="st3"/>
			<text x="22.59" y="273.04" class="st2" v:langID="2052"><v:paragraph v:horizAlign="1"/><v:tabList/>创建态</text>		</g>
		<g id="shape5-13" v:mID="5" v:groupContext="shape" transform="translate(590.69,-180.131)">
			<title>椭圆形.5</title>
			<desc>终止态</desc>
			<v:userDefs>
				<v:ud v:nameU="visVersion" v:val="VT0(15):26"/>
			</v:userDefs>
			<v:textBlock v:margins="rect(4,4,4,4)" v:tabSpace="42.5197"/>
			<v:textRect cx="40.6563" cy="269.435" width="71.15" height="47.4323"/>
			<path d="M0 269.43 A40.6563 27.1042 0 0 1 81.31 269.43 A40.6563 27.1042 0 0 1 -0 269.43 Z" class="st3"/>
			<text x="22.59" y="273.04" class="st2" v:langID="2052"><v:paragraph v:horizAlign="1"/><v:tabList/>终止态</text>		</g>
		<g id="shape6-16" v:mID="6" v:groupContext="shape" transform="translate(290.376,-207.236)">
			<title>普通双箭头</title>
			<v:userDefs>
				<v:ud v:nameU="visVersion" v:val="VT0(15):26"/>
				<v:ud v:nameU="ArrowType" v:prompt="" v:val="VT0(3):26"/>
			</v:userDefs>
			<path d="M0 296.54 L11.34 285.2 L11.34 290.87 L98.16 290.87 L98.16 285.2 L109.5 296.54 L98.16 307.88 L98.16 302.21 L11.34
						 302.21 L11.34 307.88 L0 296.54 Z" class="st4"/>
		</g>
		<g id="shape7-18" v:mID="7" v:groupContext="shape" transform="translate(209.063,385.843) rotate(180)">
			<title>普通箭头</title>
			<v:userDefs>
				<v:ud v:nameU="visVersion" v:val="VT0(15):26"/>
				<v:ud v:nameU="ArrowType" v:prompt="" v:val="VT0(2):26"/>
			</v:userDefs>
			<path d="M0 296.54 L11.34 285.2 L11.34 290.87 L109.5 290.87 L109.5 296.54 L109.5 302.21 L11.34 302.21 L11.34 307.88 L0
						 296.54 Z" class="st4"/>
		</g>
		<g id="shape8-20" v:mID="8" v:groupContext="shape" transform="translate(590.69,385.843) rotate(180)">
			<title>普通箭头.8</title>
			<v:userDefs>
				<v:ud v:nameU="visVersion" v:val="VT0(15):26"/>
				<v:ud v:nameU="ArrowType" v:prompt="" v:val="VT0(2):26"/>
			</v:userDefs>
			<path d="M0 296.54 L11.34 285.2 L11.34 290.87 L109.5 290.87 L109.5 296.54 L109.5 302.21 L11.34 302.21 L11.34 307.88 L0
						 296.54 Z" class="st4"/>
		</g>
		<g id="shape9-22" v:mID="9" v:groupContext="shape" transform="translate(132.865,51.0353) rotate(-58.5283)">
			<title>普通箭头.9</title>
			<v:userDefs>
				<v:ud v:nameU="visVersion" v:val="VT0(15):26"/>
				<v:ud v:nameU="ArrowType" v:prompt="" v:val="VT0(2):26"/>
			</v:userDefs>
			<path d="M0 296.54 L11.34 285.2 L11.34 290.87 L104.87 290.87 L104.87 296.54 L104.87 302.21 L11.34 302.21 L11.34 307.88
						 L0 296.54 Z" class="st4"/>
		</g>
		<g id="shape10-24" v:mID="10" v:groupContext="shape" transform="translate(502.637,-38.4085) rotate(58.5283)">
			<title>普通箭头.10</title>
			<v:userDefs>
				<v:ud v:nameU="visVersion" v:val="VT0(15):26"/>
				<v:ud v:nameU="ArrowType" v:prompt="" v:val="VT0(2):26"/>
			</v:userDefs>
			<path d="M0 296.54 L11.34 285.2 L11.34 290.87 L104.87 290.87 L104.87 296.54 L104.87 302.21 L11.34 302.21 L11.34 307.88
						 L0 296.54 Z" class="st4"/>
		</g>
		<g id="shape24-26" v:mID="24" v:groupContext="shape" transform="translate(592.059,243.411) rotate(90)">
			<title>垂直提示框</title>
			<desc>处理机× 其他×</desc>
			<v:userDefs>
				<v:ud v:nameU="Scale" v:val="VT0(1):26"/>
				<v:ud v:nameU="AntiScale" v:val="VT0(1):26"/>
				<v:ud v:nameU="visVersion" v:val="VT0(15):26"/>
			</v:userDefs>
			<v:textBlock v:margins="rect(4,4,4,4)" v:tabSpace="42.5197"/>
			<v:textRect cx="18.4019" cy="254.019" width="85.04" height="36.8038" transform="rotate(-90)"/>
			<path d="M0 296.54 L36.8 296.54 L36.8 211.5 L0 211.5 L0 246.93 L-10.45 246.93 L0 261.11 L0 296.54 Z" class="st5"/>
			<text x="-278.11" y="14.8" transform="rotate(-90)" class="st6" v:langID="2052"><v:paragraph v:horizAlign="1"/><v:tabList/>处理机×<v:newlineChar/><tspan
						x="-272.09" dy="1.2em" class="st7">其他</tspan>×</text>		</g>
		<g id="shape25-30" v:mID="25" v:groupContext="shape" transform="translate(-4.15801,53.1285) rotate(-90)">
			<title>垂直提示框.25</title>
			<desc>处理机× 其他√</desc>
			<v:userDefs>
				<v:ud v:nameU="Scale" v:val="VT0(1):26"/>
				<v:ud v:nameU="AntiScale" v:val="VT0(1):26"/>
				<v:ud v:nameU="visVersion" v:val="VT0(15):26"/>
			</v:userDefs>
			<v:textBlock v:margins="rect(4,4,4,4)" v:tabSpace="42.5197"/>
			<v:textRect cx="18.4019" cy="254.019" width="85.04" height="36.8038" transform="rotate(90)"/>
			<path d="M0 296.54 L36.8 296.54 L36.8 211.5 L0 211.5 L0 246.93 L-9.07 253.88 L0 261.11 L0 296.54 Z" class="st5"/>
			<text x="229.93" y="-22" transform="rotate(90)" class="st6" v:langID="2052"><v:paragraph v:horizAlign="1"/><v:tabList/>处理机×<v:newlineChar/><tspan
						x="235.95" dy="1.2em" class="st7">其他</tspan>√</text>		</g>
		<g id="shape26-34" v:mID="26" v:groupContext="shape" transform="translate(186.655,53.1285) rotate(-90)">
			<title>垂直提示框.26</title>
			<desc>处理机√ 其他√</desc>
			<v:userDefs>
				<v:ud v:nameU="Scale" v:val="VT0(1):26"/>
				<v:ud v:nameU="AntiScale" v:val="VT0(1):26"/>
				<v:ud v:nameU="visVersion" v:val="VT0(15):26"/>
			</v:userDefs>
			<v:textBlock v:margins="rect(4,4,4,4)" v:tabSpace="42.5197"/>
			<v:textRect cx="18.4019" cy="254.019" width="85.04" height="36.8038" transform="rotate(90)"/>
			<path d="M0 296.54 L36.8 296.54 L36.8 211.5 L0 211.5 L0 246.93 L-9.07 253.88 L0 261.11 L0 296.54 Z" class="st5"/>
			<text x="229.93" y="-22" transform="rotate(90)" class="st6" v:langID="2052"><v:paragraph v:horizAlign="1"/><v:tabList/>处理机√<v:newlineChar/><tspan
						x="235.95" dy="1.2em" class="st7">其他</tspan>√</text>		</g>
		<g id="shape27-38" v:mID="27" v:groupContext="shape" transform="translate(716.784,180.371) rotate(90)">
			<title>垂直提示框.27</title>
			<desc>进程用“系统调用”的方式申请某种系统资源或者请求等待某个事件发生</desc>
			<v:userDefs>
				<v:ud v:nameU="Scale" v:val="VT0(1):26"/>
				<v:ud v:nameU="AntiScale" v:val="VT0(1):26"/>
				<v:ud v:nameU="visVersion" v:val="VT0(15):26"/>
			</v:userDefs>
			<v:textBlock v:margins="rect(4,4,4,4)" v:tabSpace="42.5197"/>
			<v:textRect cx="32.802" cy="237.012" width="119.06" height="65.604" transform="rotate(-90)"/>
			<path d="M0 296.54 L65.6 296.54 L65.6 177.48 L0 177.48 L0 229.92 L-26.54 292.51 L0 244.1 L0 296.54 Z" class="st5"/>
			<text x="-291.22" y="14.8" transform="rotate(-90)" class="st6" v:langID="2052"><v:paragraph v:horizAlign="1"/><v:tabList/>进程用“系统调用”<tspan
						x="-291.22" dy="1.2em" class="st7">的方式申请某种系统</tspan><tspan x="-291.22" dy="1.2em" class="st7">资源</tspan>，或者请求等待<tspan
						x="-273.15" dy="1.2em" class="st7">某个事件发生</tspan></text>		</g>
		<g id="shape28-44" v:mID="28" v:groupContext="shape" transform="translate(435.668,178.235) rotate(90)">
			<title>垂直提示框.28</title>
			<desc>申请的资源被分配或等待的事件发生</desc>
			<v:userDefs>
				<v:ud v:nameU="Scale" v:val="VT0(1):26"/>
				<v:ud v:nameU="AntiScale" v:val="VT0(1):26"/>
				<v:ud v:nameU="visVersion" v:val="VT0(15):26"/>
			</v:userDefs>
			<v:textBlock v:margins="rect(4,4,4,4)" v:tabSpace="42.5197"/>
			<v:textRect cx="18.4019" cy="237.012" width="119.06" height="36.8038" transform="rotate(-90)"/>
			<path d="M0 296.54 L36.8 296.54 L36.8 177.48 L0 177.48 L0 229.92 L-21.23 167.75 L0 244.1 L0 296.54 Z" class="st5"/>
			<text x="-291.22" y="14.8" transform="rotate(-90)" class="st6" v:langID="2052"><v:paragraph v:horizAlign="1"/><v:tabList/>申请的资源被分配，<tspan
						x="-285.2" dy="1.2em" class="st7">或等待的事件发生</tspan></text>		</g>
		<g id="shape29-48" v:mID="29" v:groupContext="shape" transform="translate(398.332,110.351) rotate(90)">
			<title>垂直提示框.29</title>
			<desc>系统完成创建进程的一系列工作</desc>
			<v:userDefs>
				<v:ud v:nameU="Scale" v:val="VT0(1):26"/>
				<v:ud v:nameU="AntiScale" v:val="VT0(1):26"/>
				<v:ud v:nameU="visVersion" v:val="VT0(15):26"/>
			</v:userDefs>
			<v:textBlock v:margins="rect(4,4,4,4)" v:tabSpace="42.5197"/>
			<v:textRect cx="25.602" cy="252.825" width="87.43" height="51.2039" transform="rotate(-90)"/>
			<path d="M0 296.54 L51.2 296.54 L51.2 209.11 L0 209.11 L0 245.74 L-15.38 251.63 L0 259.91 L0 296.54 Z" class="st5"/>
			<text x="-288.97" y="14.8" transform="rotate(-90)" class="st6" v:langID="2052"><v:paragraph v:horizAlign="1"/><v:tabList/>系统完成创建<tspan
						x="-288.97" dy="1.2em" class="st7">进程的一系列</tspan><tspan x="-264.87" dy="1.2em" class="st7">工作</tspan></text>		</g>
		<g id="shape30-53" v:mID="30" v:groupContext="shape" transform="translate(607.732,110.351) rotate(90)">
			<title>垂直提示框.30</title>
			<desc>时间片到或处理机被抢占</desc>
			<v:userDefs>
				<v:ud v:nameU="Scale" v:val="VT0(1):26"/>
				<v:ud v:nameU="AntiScale" v:val="VT0(1):26"/>
				<v:ud v:nameU="visVersion" v:val="VT0(15):26"/>
			</v:userDefs>
			<v:textBlock v:margins="rect(4,4,4,4)" v:tabSpace="42.5197"/>
			<v:textRect cx="25.602" cy="259.244" width="74.6" height="51.2039" transform="rotate(-90)"/>
			<path d="M0 296.54 L51.2 296.54 L51.2 221.95 L0 221.95 L0 252.16 L-15.38 258.05 L0 266.33 L0 296.54 Z" class="st5"/>
			<text x="-289.36" y="14.8" transform="rotate(-90)" class="st6" v:langID="2052"><v:paragraph v:horizAlign="1"/><v:tabList/>时间片到，<tspan
						x="-289.36" dy="1.2em" class="st7">或处理机被</tspan><tspan x="-271.29" dy="1.2em" class="st7">抢占</tspan></text>		</g>
		<g id="shape31-58" v:mID="31" v:groupContext="shape" transform="translate(768.86,110.351) rotate(90)">
			<title>垂直提示框.31</title>
			<desc>进程运行结束或运行过程中遇到不可修复的错误</desc>
			<v:userDefs>
				<v:ud v:nameU="Scale" v:val="VT0(1):26"/>
				<v:ud v:nameU="AntiScale" v:val="VT0(1):26"/>
				<v:ud v:nameU="visVersion" v:val="VT0(15):26"/>
			</v:userDefs>
			<v:textBlock v:margins="rect(4,4,4,4)" v:tabSpace="42.5197"/>
			<v:textRect cx="25.602" cy="236.121" width="120.84" height="51.2039" transform="rotate(-90)"/>
			<path d="M0 296.54 L51.2 296.54 L51.2 175.7 L0 175.7 L0 229.03 L-15.38 234.93 L0 243.21 L0 296.54 Z" class="st5"/>
			<text x="-290.33" y="14.8" transform="rotate(-90)" class="st6" v:langID="2052"><v:paragraph v:horizAlign="1"/><v:tabList/>进程运行结束，或运<tspan
						x="-290.33" dy="1.2em" class="st7">行过程中遇到不可修</tspan><tspan x="-260.21" dy="1.2em" class="st7">复的错误</tspan></text>		</g>
		<g id="shape32-63" v:mID="32" v:groupContext="shape" transform="translate(94.792,74.5634) rotate(-90)">
			<title>垂直提示框.32</title>
			<desc>进程被调度</desc>
			<v:userDefs>
				<v:ud v:nameU="Scale" v:val="VT0(1):26"/>
				<v:ud v:nameU="AntiScale" v:val="VT0(1):26"/>
				<v:ud v:nameU="visVersion" v:val="VT0(15):26"/>
			</v:userDefs>
			<v:textBlock v:margins="rect(4,4,4,4)" v:tabSpace="42.5197"/>
			<v:textRect cx="11.2019" cy="254.019" width="85.04" height="22.4037" transform="rotate(90)"/>
			<path d="M0 296.54 L22.4 296.54 L22.4 211.5 L0 211.5 L0 246.93 L-9.07 253.88 L0 261.11 L0 296.54 Z" class="st5"/>
			<text x="223.9" y="-7.6" transform="rotate(90)" class="st6" v:langID="2052"><v:paragraph v:horizAlign="1"/><v:tabList/>进程被调度</text>		</g>
	</g>
</svg>
