<?xml version="1.0" encoding="utf-8" standalone="yes"?><svg xmlns:xlink="http://www.w3.org/1999/xlink" xmlns="http://www.w3.org/2000/svg" focusable="false" preserveAspectRatio="xMinYMin" width="643" height="322" viewBox="-98.79 -157.99 642.89  322.27" style="background-color:white"><polyline fill="none" stroke-width="2" stroke="#9fc5e8" stroke-dasharray="" stroke-linecap="" stroke-opacity="1" points="200.09769382476807, 114.13185000419617 223, 114.13185000419617 223, 114.13185000419617 223, 116.26334738731384 223, 116.26334738731384 231.09769382476807, 116.26334738731384" visibility="visible" style="opacity: 1;"/><polyline fill="none" stroke-width="2" stroke="#9fc5e8" stroke-dasharray="" stroke-linecap="" stroke-opacity="1" points="186.93569889068604, 45.107404470443726 210, 45.107404470443726 210, 45.107404470443726 210, 78.55387854576111 210, 78.55387854576111 217.93569889068604, 78.55387854576111" visibility="visible" style="opacity: 1;"/><polyline fill="none" stroke-width="2" stroke="#9fc5e8" stroke-dasharray="" stroke-linecap="" stroke-opacity="1" points="186.93569889068604, 45.107404470443726 210, 45.107404470443726 210, 45.107404470443726 210, 45.107404470443726 210, 45.107404470443726 217.93569889068604, 45.107404470443726" visibility="visible" style="opacity: 1;"/><polyline fill="none" stroke-width="2" stroke="#9fc5e8" stroke-dasharray="" stroke-linecap="" stroke-opacity="1" points="186.93569889068604, 45.107404470443726 210, 45.107404470443726 210, 45.107404470443726 210, 11.660930395126343 210, 11.660930395126343 217.93569889068604, 11.660930395126343" visibility="visible" style="opacity: 1;"/><polyline fill="none" stroke-width="2" stroke="#9fc5e8" stroke-dasharray="" stroke-linecap="" stroke-opacity="1" points="0, 0 76, 0 76, 0 76, 45.107404470443726 76, 45.107404470443726 100.78942462921142, 45.107404470443726" visibility="visible" style="opacity: 1;"/><rect width="104" height="32" rx="0" ry="0" x="97" y="99" stroke-width="1" stroke="#FF9933" stroke-dasharray="" stroke-linecap="" fill="#CC0033" stroke-opacity="0.4" fill-opacity="0.4" visibility="hidden" style="opacity: 0;"/><path d="M343.9,115.8  C296.0,115.6  248.0,114.8  200.1,114.1   248.0,115.2  296.0,116.3  343.9,116.8  Z" stroke-width="1" stroke="#CC0033" stroke-dasharray="" stroke-linecap="" stroke-opacity="0.4" fill-opacity="0.4" visibility="hidden" style="opacity: 0;"/><path d="M-105.8,-0.5  C-70.5,0.0  -35.3,0.0  0.0,0.0   -35.3,0.4  -70.5,0.7  -105.8,0.5  Z" stroke-width="1" stroke="#CC0033" stroke-dasharray="" stroke-linecap="" stroke-opacity="0.4" fill-opacity="0.4" visibility="hidden" style="opacity: 0;"/><polyline fill="none" stroke-width="2" stroke="#9fc5e8" stroke-dasharray="" stroke-linecap="" stroke-opacity="1" points="223.75731601715088, -35.57797145843506 247, -35.57797145843506 247, -35.57797145843506 247, -21.78554368019104 247, -21.78554368019104 254.75731601715088, -21.78554368019104" visibility="visible" style="opacity: 1;"/><polyline fill="none" stroke-width="2" stroke="#9fc5e8" stroke-dasharray="" stroke-linecap="" stroke-opacity="1" points="223.75731601715088, -35.57797145843506 247, -35.57797145843506 247, -35.57797145843506 247, -52.30120849609375 247, -52.30120849609375 254.75731601715086, -52.30120849609375" visibility="visible" style="opacity: 1;"/><polyline fill="none" stroke-width="2" stroke="#9fc5e8" stroke-dasharray="" stroke-linecap="" stroke-opacity="1" points="187.4685739517212, -99.54011034965515 211, -99.54011034965515 211, -99.54011034965515 211, -82.81687331199646 211, -82.81687331199646 218.4685739517212, -82.81687331199646" visibility="visible" style="opacity: 1;"/><polyline fill="none" stroke-width="2" stroke="#9fc5e8" stroke-dasharray="" stroke-linecap="" stroke-opacity="1" points="187.4685739517212, -99.54011034965515 211, -99.54011034965515 211, -99.54011034965515 211, -116.26334738731384 211, -116.26334738731384 218.4685739517212, -116.26334738731384" visibility="visible" style="opacity: 1;"/><polyline fill="none" stroke-width="2" stroke="#9fc5e8" stroke-dasharray="" stroke-linecap="" stroke-opacity="1" points="0, 0 76, 0 76, 0 76, 114.13185000419617 76, 114.13185000419617 100.78942462921142, 114.13185000419617" visibility="visible" style="opacity: 1;"/><polyline fill="none" stroke-width="2" stroke="#9fc5e8" stroke-dasharray="" stroke-linecap="" stroke-opacity="1" points="0, 0 76, 0 76, 0 76, -35.57797145843506 76, -35.57797145843506 100.78942462921142, -35.57797145843506" visibility="visible" style="opacity: 1;"/><polyline fill="none" stroke-width="2" stroke="#9fc5e8" stroke-dasharray="" stroke-linecap="" stroke-opacity="1" points="0, 0 76, 0 76, 0 76, -99.54011034965515 76, -99.54011034965515 100.78942462921142, -99.54011034965515" visibility="visible" style="opacity: 1;"/><g preserveAspectRatio="none" focusable="true" width="100" height="100" transform="translate(-68.79,-14.92) scale(1.00,1.00)" test-id="1" visibility="visible" style="opacity: 1;"><rect width="144" height="36" rx="11" ry="11" x="-3" y="-3" stroke-width="1" stroke="#5199da" stroke-dasharray="" stroke-linecap="" fill="#5199da" stroke-opacity="0" fill-opacity="0" style="cursor: default;"/><rect width="138" height="30" rx="9" ry="9" x="0" y="0" stroke-width="2" stroke="#0b5394" stroke-dasharray="" stroke-linecap="" fill="#0b5394" visibility="visible" style="cursor: default; opacity: 1;"/><text font-family="Arial" font-size="13.4" font-style="normal" font-weight="bold" fill="#ffffff" visibility="visible" style="cursor: default; opacity: 1;" y="7.46" x="7.76"><tspan dy="1em" x="7.76">进程控制块（PCB）</tspan></text><g preserveAspectRatio="none" focusable="true" width="0" height="19"/></g><g preserveAspectRatio="none" focusable="true" width="100" height="100" transform="translate(98.79,-113.39) scale(1.00,1.00)" test-id="176" visibility="visible" style="opacity: 1;"><rect width="94" height="34" rx="10" ry="10" x="-3" y="-3" stroke-width="1" stroke="#5199da" stroke-dasharray="" stroke-linecap="" fill="#5199da" stroke-opacity="0" fill-opacity="0" style="cursor: move;"/><rect width="88" height="28" rx="12" ry="12" x="0" y="0" stroke-width="2" stroke="#0b5394" stroke-dasharray="" stroke-linecap="" fill="#0b5394" style="cursor: move; opacity: 1;" visibility="visible"/><text font-family="Arial" font-size="12.1" font-style="normal" font-weight="normal" fill="#ffffff" visibility="visible" style="cursor: move; opacity: 1;" y="6.93" x="7.20"><tspan dy="1em" x="7.20">进程描述信息</tspan></text><g preserveAspectRatio="none" focusable="true" width="0" height="18"/><ellipse width="6" height="6" rx="3" ry="3" cx="91" cy="14" stroke-width="2" stroke="#0b5394" stroke-dasharray="" stroke-linecap="" fill="#6fb7f8" visibility="visible" style="cursor: default; opacity: 1;"/></g><g preserveAspectRatio="none" focusable="true" width="100" height="100" transform="translate(98.79,-49.43) scale(1.00,1.00)" test-id="177" visibility="visible" style="opacity: 1;"><rect width="130" height="34" rx="10" ry="10" x="-3" y="-3" stroke-width="1" stroke="#5199da" stroke-dasharray="" stroke-linecap="" fill="#5199da" stroke-opacity="0" fill-opacity="0" style="cursor: move;"/><rect width="124" height="28" rx="12" ry="12" x="0" y="0" stroke-width="2" stroke="#0b5394" stroke-dasharray="" stroke-linecap="" fill="#0b5394" style="cursor: move; opacity: 1;" visibility="visible"/><text font-family="Arial" font-size="12.1" font-style="normal" font-weight="normal" fill="#ffffff" visibility="visible" style="cursor: move; opacity: 1;" y="6.93" x="7.20"><tspan dy="1em" x="7.20">进程控制和管理信息</tspan></text><g preserveAspectRatio="none" focusable="true" width="0" height="18"/><ellipse width="6" height="6" rx="3" ry="3" cx="127" cy="14" stroke-width="2" stroke="#0b5394" stroke-dasharray="" stroke-linecap="" fill="#6fb7f8" visibility="visible" style="cursor: default; opacity: 1;"/></g><g preserveAspectRatio="none" focusable="true" width="100" height="100" transform="translate(98.79,31.25) scale(1.00,1.00)" test-id="178" visibility="visible" style="opacity: 1;"><rect width="93" height="34" rx="10" ry="10" x="-3" y="-3" stroke-width="1" stroke="#5199da" stroke-dasharray="" stroke-linecap="" fill="#5199da" stroke-opacity="0" fill-opacity="0" style="cursor: move;"/><rect width="87" height="28" rx="12" ry="12" x="0" y="0" stroke-width="2" stroke="#0b5394" stroke-dasharray="" stroke-linecap="" fill="#0b5394" style="cursor: move; opacity: 1;" visibility="visible"/><text font-family="Arial" font-size="12.1" font-style="normal" font-weight="normal" fill="#ffffff" visibility="visible" style="cursor: move; opacity: 1;" y="6.93" x="7.20"><tspan dy="1em" x="7.20">资源分配清单</tspan></text><g preserveAspectRatio="none" focusable="true" width="0" height="18"/><ellipse width="6" height="6" rx="3" ry="3" cx="90" cy="14" stroke-width="2" stroke="#0b5394" stroke-dasharray="" stroke-linecap="" fill="#6fb7f8" visibility="visible" style="cursor: default; opacity: 1;"/></g><g preserveAspectRatio="none" focusable="true" width="100" height="100" transform="translate(98.79,100.28) scale(1.00,1.00)" test-id="179" visibility="visible" style="opacity: 1;"><rect width="106" height="34" rx="10" ry="10" x="-3" y="-3" stroke-width="1" stroke="#5199da" stroke-dasharray="" stroke-linecap="" fill="#5199da" stroke-opacity="0" fill-opacity="0" style="cursor: move;"/><rect width="100" height="28" rx="12" ry="12" x="0" y="0" stroke-width="2" stroke="#0b5394" stroke-dasharray="" stroke-linecap="" fill="#0b5394" style="cursor: move; opacity: 1;" visibility="visible"/><text font-family="Arial" font-size="12.1" font-style="normal" font-weight="normal" fill="#ffffff" visibility="visible" style="cursor: move; opacity: 1;" y="6.93" x="7.20"><tspan dy="1em" x="7.20">处理机相关信息</tspan></text><g preserveAspectRatio="none" focusable="true" width="0" height="18"/><ellipse width="6" height="6" rx="3" ry="3" cx="103" cy="14" stroke-width="2" stroke="#0b5394" stroke-dasharray="" stroke-linecap="" fill="#6fb7f8" visibility="visible" style="cursor: default; opacity: 1;"/></g><g preserveAspectRatio="none" focusable="true" width="100" height="100" transform="translate(216.47,-127.99) scale(1.00,1.00)" test-id="180" visibility="visible" style="opacity: 1;"><rect width="91" height="29" rx="9" ry="9" x="-3" y="-3" stroke-width="1" stroke="#5199da" stroke-dasharray="" stroke-linecap="" fill="#5199da" stroke-opacity="0" fill-opacity="0" style="cursor: move;"/><rect width="85" height="23" rx="11" ry="11" x="0" y="0" stroke-width="2" stroke="#0b5394" stroke-dasharray="" stroke-linecap="" fill="#0b5394" style="cursor: move; opacity: 1;" visibility="visible"/><text font-family="Arial" font-size="10.8" font-style="normal" font-weight="normal" fill="#ffffff" visibility="visible" style="cursor: move; opacity: 1;" y="5.86" x="6.10"><tspan dy="1em" x="6.10">进程标识符PID</tspan></text><g preserveAspectRatio="none" focusable="true" width="0" height="15"/><ellipse width="6" height="6" rx="3" ry="3" cx="5" cy="5" stroke-width="2" stroke="#0b5394" stroke-dasharray="" stroke-linecap="" fill="#6fb7f8" visibility="hidden" style="cursor: default; opacity: 0;"/></g><g preserveAspectRatio="none" focusable="true" width="100" height="100" transform="translate(216.47,-94.54) scale(1.00,1.00)" test-id="181" visibility="visible" style="opacity: 1;"><rect width="91" height="29" rx="9" ry="9" x="-3" y="-3" stroke-width="1" stroke="#5199da" stroke-dasharray="" stroke-linecap="" fill="#5199da" stroke-opacity="0" fill-opacity="0" style="cursor: move;"/><rect width="85" height="23" rx="11" ry="11" x="0" y="0" stroke-width="2" stroke="#0b5394" stroke-dasharray="" stroke-linecap="" fill="#0b5394" style="cursor: move; opacity: 1;" visibility="visible"/><text font-family="Arial" font-size="10.8" font-style="normal" font-weight="normal" fill="#ffffff" visibility="visible" style="cursor: move; opacity: 1;" y="5.86" x="6.10"><tspan dy="1em" x="6.10">用户标识符UID</tspan></text><g preserveAspectRatio="none" focusable="true" width="0" height="15"/><ellipse width="6" height="6" rx="3" ry="3" cx="5" cy="5" stroke-width="2" stroke="#0b5394" stroke-dasharray="" stroke-linecap="" fill="#6fb7f8" visibility="hidden" style="cursor: default; opacity: 0;"/></g><g preserveAspectRatio="none" focusable="true" width="100" height="100" transform="translate(252.76,-61.09) scale(1.00,1.00)" test-id="184" visibility="visible" style="opacity: 1;"><rect width="195" height="24" rx="7" ry="7" x="-3" y="-3" stroke-width="1" stroke="#5199da" stroke-dasharray="" stroke-linecap="" fill="#5199da" stroke-opacity="0" fill-opacity="0" style="cursor: move;"/><rect width="189" height="18" rx="8" ry="8" x="0" y="0" stroke-width="2" stroke="#0b5394" stroke-dasharray="" stroke-linecap="" fill="#0b5394" style="cursor: move; opacity: 1;" visibility="visible"/><text font-family="Arial" font-size="10.8" font-style="normal" font-weight="normal" fill="#ffffff" visibility="visible" style="cursor: move; opacity: 1;" y="2.93" x="3.05"><tspan dy="1em" x="3.05">CPU、磁盘、网络流量使用情况统计...</tspan><tspan dy="1em" x="3.05"> </tspan></text><g preserveAspectRatio="none" focusable="true" width="0" height="8"/><ellipse width="6" height="6" rx="3" ry="3" cx="5" cy="5" stroke-width="2" stroke="#0b5394" stroke-dasharray="" stroke-linecap="" fill="#6fb7f8" visibility="hidden" style="cursor: default; opacity: 0;"/></g><g preserveAspectRatio="none" focusable="true" width="100" height="100" transform="translate(252.76,-33.51) scale(1.00,1.00)" test-id="185" visibility="visible" style="opacity: 1;"><rect width="203" height="29" rx="9" ry="9" x="-3" y="-3" stroke-width="1" stroke="#5199da" stroke-dasharray="" stroke-linecap="" fill="#5199da" stroke-opacity="0" fill-opacity="0" style="cursor: move;"/><rect width="197" height="23" rx="11" ry="11" x="0" y="0" stroke-width="2" stroke="#0b5394" stroke-dasharray="" stroke-linecap="" fill="#0b5394" style="cursor: move; opacity: 1;" visibility="visible"/><text font-family="Arial" font-size="10.8" font-style="normal" font-weight="normal" fill="#ffffff" visibility="visible" style="cursor: move; opacity: 1;" y="5.86" x="6.10"><tspan dy="1em" x="6.10">进程当前状态︰就绪态/阻塞态/运行态..</tspan></text><g preserveAspectRatio="none" focusable="true" width="0" height="15"/><ellipse width="6" height="6" rx="3" ry="3" cx="5" cy="5" stroke-width="2" stroke="#0b5394" stroke-dasharray="" stroke-linecap="" fill="#6fb7f8" visibility="hidden" style="cursor: default; opacity: 0;"/></g><g preserveAspectRatio="none" focusable="true" width="100" height="100" transform="translate(215.94,-0.06) scale(1.00,1.00)" test-id="186" visibility="visible" style="opacity: 1;"><rect width="105" height="29" rx="9" ry="9" x="-3" y="-3" stroke-width="1" stroke="#5199da" stroke-dasharray="" stroke-linecap="" fill="#5199da" stroke-opacity="0" fill-opacity="0" style="cursor: move;"/><rect width="99" height="23" rx="11" ry="11" x="0" y="0" stroke-width="2" stroke="#0b5394" stroke-dasharray="" stroke-linecap="" fill="#0b5394" style="cursor: move; opacity: 1;" visibility="visible"/><text font-family="Arial" font-size="10.8" font-style="normal" font-weight="normal" fill="#ffffff" visibility="visible" style="cursor: move; opacity: 1;" y="5.86" x="6.10"><tspan dy="1em" x="6.10">正在使用哪些文件</tspan></text><g preserveAspectRatio="none" focusable="true" width="0" height="15"/><ellipse width="6" height="6" rx="3" ry="3" cx="5" cy="5" stroke-width="2" stroke="#0b5394" stroke-dasharray="" stroke-linecap="" fill="#6fb7f8" visibility="hidden" style="cursor: default; opacity: 0;"/></g><g preserveAspectRatio="none" focusable="true" width="100" height="100" transform="translate(215.94,33.38) scale(1.00,1.00)" test-id="187" visibility="visible" style="opacity: 1;"><rect width="127" height="29" rx="9" ry="9" x="-3" y="-3" stroke-width="1" stroke="#5199da" stroke-dasharray="" stroke-linecap="" fill="#5199da" stroke-opacity="0" fill-opacity="0" style="cursor: move;"/><rect width="121" height="23" rx="11" ry="11" x="0" y="0" stroke-width="2" stroke="#0b5394" stroke-dasharray="" stroke-linecap="" fill="#0b5394" style="cursor: move; opacity: 1;" visibility="visible"/><text font-family="Arial" font-size="10.8" font-style="normal" font-weight="normal" fill="#ffffff" visibility="visible" style="cursor: move; opacity: 1;" y="5.86" x="6.10"><tspan dy="1em" x="6.10">正在使用哪些内存区域</tspan></text><g preserveAspectRatio="none" focusable="true" width="0" height="15"/><ellipse width="6" height="6" rx="3" ry="3" cx="5" cy="5" stroke-width="2" stroke="#0b5394" stroke-dasharray="" stroke-linecap="" fill="#6fb7f8" visibility="hidden" style="cursor: default; opacity: 0;"/></g><g preserveAspectRatio="none" focusable="true" width="100" height="100" transform="translate(215.94,66.83) scale(1.00,1.00)" test-id="188" visibility="visible" style="opacity: 1;"><rect width="120" height="29" rx="9" ry="9" x="-3" y="-3" stroke-width="1" stroke="#5199da" stroke-dasharray="" stroke-linecap="" fill="#5199da" stroke-opacity="0" fill-opacity="0" style="cursor: move;"/><rect width="114" height="23" rx="11" ry="11" x="0" y="0" stroke-width="2" stroke="#0b5394" stroke-dasharray="" stroke-linecap="" fill="#0b5394" style="cursor: move; opacity: 1;" visibility="visible"/><text font-family="Arial" font-size="10.8" font-style="normal" font-weight="normal" fill="#ffffff" visibility="visible" style="cursor: move; opacity: 1;" y="5.86" x="6.10"><tspan dy="1em" x="6.10">正在使用哪些I/O设备</tspan></text><g preserveAspectRatio="none" focusable="true" width="0" height="15"/><ellipse width="6" height="6" rx="3" ry="3" cx="5" cy="5" stroke-width="2" stroke="#0b5394" stroke-dasharray="" stroke-linecap="" fill="#6fb7f8" visibility="hidden" style="cursor: default; opacity: 0;"/></g><g preserveAspectRatio="none" focusable="true" width="100" height="100" transform="translate(229.10,104.54) scale(1.00,1.00)" test-id="189" visibility="visible" style="opacity: 1;"><rect width="285" height="29" rx="9" ry="9" x="-3" y="-3" stroke-width="1" stroke="#5199da" stroke-dasharray="" stroke-linecap="" fill="#5199da" stroke-opacity="0" fill-opacity="0" style="cursor: move;"/><rect width="279" height="23" rx="11" ry="11" x="0" y="0" stroke-width="2" stroke="#0b5394" stroke-dasharray="" stroke-linecap="" fill="#0b5394" style="cursor: move; opacity: 1;" visibility="visible"/><text font-family="Arial" font-size="10.8" font-style="normal" font-weight="normal" fill="#ffffff" visibility="visible" style="cursor: move; opacity: 1;" y="5.86" x="6.10"><tspan dy="1em" x="6.10">如PSW、PC等等各种寄存器的值（用于实现进程切换）</tspan></text><g preserveAspectRatio="none" focusable="true" width="0" height="15"/><ellipse width="6" height="6" rx="3" ry="3" cx="5" cy="5" stroke-width="2" stroke="#0b5394" stroke-dasharray="" stroke-linecap="" fill="#6fb7f8" visibility="hidden" style="cursor: default; opacity: 0;"/></g><rect width="50" height="6" rx="0" ry="0" x="342" y="113" stroke-width="1" stroke="#FF9933" stroke-dasharray="" stroke-linecap="" fill="#CC0033" stroke-opacity="0.4" fill-opacity="0.4" visibility="hidden" style="opacity: 0;"/></svg>